<svg
  width="2152"
  height="600"
  viewBox="0 0 2152 600"
  fill="none"
  xmlns="http://www.w3.org/2000/svg"
>
  <g clip-path="url(#clip0_4_2)">
    <mask
      id="mask0_4_2"
      style="mask-type: luminance"
      maskUnits="userSpaceOnUse"
      x="43"
      y="12"
      width="587"
      height="587"
    >
      <path d="M630 12H43V599H630V12Z" fill="white" />
    </mask>
    <g mask="url(#mask0_4_2)">
      <mask
        id="mask1_4_2"
        style="mask-type: luminance"
        maskUnits="userSpaceOnUse"
        x="43"
        y="40"
        width="587"
        height="588"
      >
        <path d="M43 40.176H630V627.176H43V40.176Z" fill="white" />
      </mask>
      <g mask="url(#mask1_4_2)">
        <path
          d="M328.498 92.9743C303.938 135.482 128.514 439.158 108.512 474.19C106.226 479.689 110.442 486.625 116.435 486.733C118.041 486.888 130.306 486.81 132.654 486.825C247.296 486.872 437.039 486.795 551.991 486.825C553.783 486.825 556.441 486.841 556.564 486.733C557.289 486.795 557.861 486.5 558.51 486.47C563.5 484.972 566.511 479.102 564.487 474.205C564.008 473.51 564.209 473.418 562.912 471.286C504.694 370.36 420.327 224.375 361.971 123.248C358.388 117.317 348.038 98.9053 344.501 92.9896C341.026 86.9505 331.958 86.873 328.483 92.9896L328.498 92.9743ZM304.418 79.0718C315.107 60.2115 340.809 54.7594 358.309 67.6112C362.496 70.7164 365.956 74.701 368.597 79.0718L374.42 89.1588L386.067 109.332C438.076 199.415 520.434 342.062 572.442 432.145L584.09 452.318C586.051 455.825 587.858 458.482 590.237 463.64C592.121 468.459 593.095 473.665 592.925 478.87C592.477 494.58 581.216 508.991 566.063 513.208C561.151 514.598 555.328 514.66 551.991 514.598C436.808 514.459 247.481 514.706 132.654 514.598C124.761 514.319 115.617 515.493 106.936 513.192C86.0529 507.369 74.4362 483.628 82.7775 463.61C103.306 426.6 279.271 122.97 304.418 79.0718Z"
          fill="black"
        />
        <mask
          id="mask2_4_2"
          style="mask-type: alpha"
          maskUnits="userSpaceOnUse"
          x="107"
          y="88"
          width="459"
          height="399"
        >
          <path
            d="M328.498 92.9743C303.938 135.482 128.514 439.158 108.512 474.19C106.226 479.689 110.442 486.625 116.435 486.733C118.041 486.888 130.306 486.81 132.654 486.825C247.296 486.872 437.039 486.795 551.991 486.825C553.783 486.825 556.441 486.841 556.564 486.733C557.289 486.795 557.861 486.5 558.51 486.47C563.5 484.972 566.511 479.102 564.487 474.205C564.008 473.51 564.209 473.418 562.912 471.286C504.694 370.36 420.327 224.375 361.971 123.248C358.388 117.317 348.038 98.9053 344.501 92.9895C341.026 86.9505 331.958 86.873 328.483 92.9895L328.498 92.9743Z"
            fill="black"
          />
        </mask>
        <g mask="url(#mask2_4_2)">
          <path
            d="M280.305 326.661L329.41 411.725C332.561 417.193 340.454 417.193 343.605 411.725L392.709 326.661C395.86 321.193 391.921 314.366 385.619 314.366H287.412C281.109 314.366 277.155 321.193 280.322 326.661H280.305ZM332.175 382.593L306.905 338.833C304.973 335.497 307.384 331.327 311.245 331.327H361.786C365.632 331.327 368.041 335.497 366.126 338.833L340.856 382.593C338.924 385.93 334.121 385.93 332.19 382.593H332.175Z"
            fill="black"
          />
        </g>
        <mask
          id="mask3_4_2"
          style="mask-type: alpha"
          maskUnits="userSpaceOnUse"
          x="107"
          y="88"
          width="459"
          height="399"
        >
          <path
            d="M328.498 92.9743C303.938 135.482 128.514 439.158 108.512 474.19C106.226 479.689 110.442 486.625 116.435 486.733C118.041 486.888 130.306 486.81 132.654 486.825C247.296 486.872 437.039 486.795 551.991 486.825C553.783 486.825 556.441 486.841 556.564 486.733C557.289 486.795 557.861 486.5 558.51 486.47C563.5 484.972 566.511 479.102 564.487 474.205C564.008 473.51 564.209 473.418 562.912 471.286C504.694 370.36 420.327 224.375 361.971 123.248C358.388 117.317 348.038 98.9053 344.501 92.9895C341.026 86.9505 331.958 86.873 328.483 92.9895L328.498 92.9743Z"
            fill="black"
          />
        </mask>
        <g mask="url(#mask3_4_2)">
          <path
            d="M313.453 95.7543C286.562 158.235 263.454 230.785 286.13 297.854C289.419 307.091 293.512 315.957 298.579 324.376L283.92 332.948C278.421 323.696 273.803 313.594 270.235 303.338C249.397 242.139 264.921 176.044 287.241 117.811C290.995 108.203 294.996 98.7199 299.166 89.3443L313.438 95.7391L313.453 95.7543Z"
            fill="black"
          />
        </g>
        <mask
          id="mask4_4_2"
          style="mask-type: alpha"
          maskUnits="userSpaceOnUse"
          x="107"
          y="88"
          width="459"
          height="399"
        >
          <path
            d="M328.498 92.9743C303.938 135.482 128.514 439.158 108.512 474.19C106.226 479.689 110.442 486.625 116.435 486.733C118.041 486.888 130.306 486.81 132.654 486.825C247.296 486.872 437.039 486.795 551.991 486.825C553.783 486.825 556.441 486.841 556.564 486.733C557.289 486.795 557.861 486.5 558.51 486.47C563.5 484.972 566.511 479.102 564.487 474.205C564.008 473.51 564.209 473.418 562.912 471.286C504.694 370.36 420.327 224.375 361.971 123.248C358.388 117.317 348.038 98.9053 344.501 92.9895C341.026 86.9505 331.958 86.873 328.483 92.9895L328.498 92.9743Z"
            fill="black"
          />
        </mask>
        <g mask="url(#mask4_4_2)">
          <path
            d="M568.998 458.527C528.328 403.987 477.062 347.699 407.63 333.813C397.992 332.052 388.261 331.157 378.436 331.342L378.344 314.366C389.109 314.228 400.154 315.277 410.827 317.316C474.235 329.875 523.725 376.352 562.989 424.808C569.43 432.856 575.64 441.073 581.679 449.368L568.998 458.527Z"
            fill="black"
          />
        </g>
        <mask
          id="mask5_4_2"
          style="mask-type: alpha"
          maskUnits="userSpaceOnUse"
          x="107"
          y="88"
          width="459"
          height="399"
        >
          <path
            d="M328.498 92.9743C303.938 135.482 128.514 439.158 108.512 474.19C106.226 479.689 110.442 486.625 116.435 486.733C118.041 486.888 130.306 486.81 132.654 486.825C247.296 486.872 437.039 486.795 551.991 486.825C553.783 486.825 556.441 486.841 556.564 486.733C557.289 486.795 557.861 486.5 558.51 486.47C563.5 484.972 566.511 479.102 564.487 474.205C564.008 473.51 564.209 473.418 562.912 471.286C504.694 370.36 420.327 224.375 361.971 123.248C358.388 117.317 348.038 98.9053 344.501 92.9895C341.026 86.9505 331.958 86.873 328.483 92.9895L328.498 92.9743Z"
            fill="black"
          />
        </mask>
        <g mask="url(#mask5_4_2)">
          <path
            d="M127.047 498.441C194.609 490.486 269 474.237 315.74 421.039C322.089 413.578 327.727 405.592 332.484 396.989L347.235 405.392C341.967 414.783 335.527 423.834 328.437 432.052C285.851 480.694 220.868 500.31 159.268 510.087C149.073 511.632 138.864 512.914 128.654 513.995L127.063 498.441H127.047Z"
            fill="black"
          />
        </g>
        <mask
          id="mask6_4_2"
          style="mask-type: alpha"
          maskUnits="userSpaceOnUse"
          x="107"
          y="88"
          width="459"
          height="399"
        >
          <path
            d="M328.498 92.9743C303.938 135.482 128.514 439.158 108.512 474.19C106.226 479.689 110.442 486.625 116.435 486.733C118.041 486.888 130.306 486.81 132.654 486.825C247.296 486.872 437.039 486.795 551.991 486.825C553.783 486.825 556.441 486.841 556.564 486.733C557.289 486.795 557.861 486.5 558.51 486.47C563.5 484.972 566.511 479.102 564.487 474.205C564.008 473.51 564.209 473.418 562.912 471.286C504.694 370.36 420.327 224.375 361.971 123.248C358.388 117.317 348.038 98.9053 344.501 92.9895C341.026 86.9505 331.958 86.873 328.483 92.9895L328.498 92.9743Z"
            fill="black"
          />
        </mask>
        <g mask="url(#mask6_4_2)">
          <mask
            id="mask7_4_2"
            style="mask-type: luminance"
            maskUnits="userSpaceOnUse"
            x="-791"
            y="-301"
            width="2255"
            height="1269"
          >
            <path
              d="M-790.54 -300.284H1463.54V967.636H-790.54V-300.284Z"
              fill="white"
            />
          </mask>
          <g mask="url(#mask7_4_2)">
            <path
              d="M403.115 328.627L321.624 437.936L314.719 429.502L387.962 319.714L403.115 328.627Z"
              fill="black"
            />
            <path
              d="M287.96 446.93L437.685 329.158L450.846 346.546L294.6 455.687L287.96 446.93Z"
              fill="black"
            />
            <path
              d="M242.648 471.909L489.56 356.136L499.267 377.332L247.543 482.579L242.648 471.909Z"
              fill="black"
            />
            <path
              d="M168.125 495.375L548.518 417.282L553.284 441.642L170.521 507.641L168.125 495.375Z"
              fill="black"
            />
          </g>
        </g>
        <mask
          id="mask8_4_2"
          style="mask-type: alpha"
          maskUnits="userSpaceOnUse"
          x="107"
          y="88"
          width="459"
          height="399"
        >
          <path
            d="M328.498 92.9743C303.938 135.482 128.514 439.158 108.512 474.19C106.226 479.689 110.442 486.625 116.435 486.733C118.041 486.888 130.306 486.81 132.654 486.825C247.296 486.872 437.039 486.795 551.991 486.825C553.783 486.825 556.441 486.841 556.564 486.733C557.289 486.795 557.861 486.5 558.51 486.47C563.5 484.972 566.511 479.102 564.487 474.205C564.008 473.51 564.209 473.418 562.912 471.286C504.694 370.36 420.327 224.375 361.971 123.248C358.388 117.317 348.038 98.9053 344.501 92.9895C341.026 86.9505 331.958 86.873 328.483 92.9895L328.498 92.9743Z"
            fill="black"
          />
        </mask>
        <g mask="url(#mask8_4_2)">
          <mask
            id="mask9_4_2"
            style="mask-type: luminance"
            maskUnits="userSpaceOnUse"
            x="-760"
            y="-933"
            width="2226"
            height="2587"
          >
            <path
              d="M1465.99 -298.34L338.953 1653.75L-759.098 1019.79L367.942 -932.3L1465.99 -298.34Z"
              fill="white"
            />
          </mask>
          <g mask="url(#mask9_4_2)">
            <path
              d="M324.513 420.94L270.594 295.712L281.35 293.949L339.809 412.273L324.513 420.94Z"
              fill="black"
            />
            <path
              d="M279.637 262.061L306.768 450.613L285.129 453.317L268.733 263.433L279.637 262.061Z"
              fill="black"
            />
            <path
              d="M280.66 210.331L257.467 482.049L234.258 479.858L268.973 209.235L280.66 210.331Z"
              fill="black"
            />
            <path
              d="M297.6 134.058L175.034 502.535L151.554 494.482L285.78 130L297.6 134.058Z"
              fill="black"
            />
          </g>
        </g>
        <mask
          id="mask10_4_2"
          style="mask-type: alpha"
          maskUnits="userSpaceOnUse"
          x="107"
          y="88"
          width="459"
          height="399"
        >
          <path
            d="M328.498 92.9743C303.938 135.482 128.514 439.158 108.512 474.19C106.226 479.689 110.442 486.625 116.435 486.733C118.041 486.888 130.306 486.81 132.654 486.825C247.296 486.872 437.039 486.795 551.991 486.825C553.783 486.825 556.441 486.841 556.564 486.733C557.289 486.795 557.861 486.5 558.51 486.47C563.5 484.972 566.511 479.102 564.487 474.205C564.008 473.51 564.209 473.418 562.912 471.286C504.694 370.36 420.327 224.375 361.971 123.248C358.388 117.317 348.038 98.9053 344.501 92.9895C341.026 86.9505 331.958 86.873 328.483 92.9895L328.498 92.9743Z"
            fill="black"
          />
        </mask>
        <g mask="url(#mask10_4_2)">
          <mask
            id="mask11_4_2"
            style="mask-type: luminance"
            maskUnits="userSpaceOnUse"
            x="-794"
            y="-934"
            width="2226"
            height="2587"
          >
            <path
              d="M333.896 1652.6L-793.144 -299.492L304.907 -933.452L1431.95 1018.64L333.896 1652.6Z"
              fill="white"
            />
          </mask>
          <g mask="url(#mask11_4_2)">
            <path
              d="M281.721 304.408L417.132 320.326L413.28 330.523L281.579 321.988L281.721 304.408Z"
              fill="black"
            />
            <path
              d="M441.752 344.984L264.896 274.204L273.374 254.112L446.017 334.855L441.752 344.984Z"
              fill="black"
            />
            <path
              d="M486.041 371.735L262.323 215.79L275.825 196.785L492.834 362.161L486.041 371.735Z"
              fill="black"
            />
            <path
              d="M543.625 424.541L285.798 134.158L304.512 117.85L553.049 416.333L543.625 424.541Z"
              fill="black"
            />
          </g>
        </g>
      </g>
    </g>
  </g>
  <path
    d="M1070.51 115.058C1071.57 115.057 1072.62 115.055 1073.68 115.053C1076.51 115.049 1079.34 115.048 1082.17 115.047C1083.94 115.047 1085.71 115.046 1087.48 115.045C1093.67 115.04 1099.86 115.038 1106.05 115.038C1111.81 115.039 1117.57 115.033 1123.33 115.026C1128.29 115.019 1133.25 115.016 1138.21 115.017C1141.17 115.017 1144.13 115.016 1147.08 115.01C1149.86 115.005 1152.63 115.005 1155.41 115.009C1156.42 115.01 1157.44 115.008 1158.46 115.005C1159.85 115.002 1161.24 115.004 1162.63 115.008C1163.22 115.004 1163.22 115.004 1163.84 115C1168.55 115.028 1172.51 115.912 1176.1 119.087C1180.21 123.764 1181.78 129.106 1181.68 135.252C1181.3 140.046 1179.77 143.791 1176.39 147.233C1172.59 150.315 1168.5 151.313 1163.73 151.306C1163.13 151.309 1163.13 151.309 1162.51 151.311C1161.17 151.315 1159.82 151.315 1158.48 151.316C1157.52 151.318 1156.55 151.321 1155.59 151.324C1153.51 151.329 1151.43 151.334 1149.35 151.337C1146.06 151.342 1142.77 151.352 1139.48 151.363C1130.12 151.394 1120.76 151.42 1111.4 151.437C1106.23 151.446 1101.06 151.46 1095.89 151.48C1093.16 151.491 1090.43 151.498 1087.7 151.499C1085.12 151.501 1082.55 151.508 1079.97 151.521C1079.03 151.525 1078.09 151.526 1077.15 151.524C1070.18 151.514 1062.76 151.59 1056.49 155.01C1056.16 155.182 1055.83 155.354 1055.5 155.531C1048.27 159.491 1044.18 165.575 1041.76 173.276C1041.02 176.056 1040.75 178.639 1040.74 181.514C1040.74 181.862 1040.74 182.209 1040.73 182.568C1040.73 183.727 1040.73 184.887 1040.73 186.046C1040.72 186.88 1040.72 187.714 1040.72 188.548C1040.71 191.281 1040.7 194.015 1040.69 196.748C1040.69 197.692 1040.69 198.635 1040.69 199.578C1040.68 204.012 1040.67 208.445 1040.67 212.878C1040.66 217.985 1040.65 223.091 1040.63 228.198C1040.62 232.152 1040.61 236.106 1040.61 240.06C1040.61 242.419 1040.6 244.777 1040.59 247.135C1040.58 249.356 1040.57 251.577 1040.58 253.798C1040.58 254.609 1040.58 255.42 1040.57 256.231C1040.53 261.842 1040.69 267.932 1044.87 272.195C1050.49 276.731 1057.9 276.53 1064.79 276.506C1065.48 276.507 1066.17 276.509 1066.86 276.511C1068.73 276.515 1070.61 276.513 1072.48 276.51C1074.51 276.507 1076.54 276.511 1078.57 276.513C1082.53 276.518 1086.5 276.517 1090.46 276.514C1093.69 276.512 1096.91 276.512 1100.13 276.513C1100.59 276.513 1101.05 276.513 1101.52 276.513C1102.45 276.513 1103.39 276.514 1104.32 276.514C1113.05 276.517 1121.79 276.514 1130.52 276.508C1138.02 276.504 1145.52 276.505 1153.02 276.509C1161.73 276.514 1170.44 276.517 1179.16 276.514C1180.08 276.513 1181.01 276.513 1181.94 276.513C1182.4 276.512 1182.85 276.512 1183.32 276.512C1186.54 276.511 1189.76 276.513 1192.99 276.515C1196.91 276.518 1200.83 276.517 1204.75 276.512C1206.75 276.509 1208.75 276.508 1210.75 276.511C1212.58 276.514 1214.41 276.513 1216.23 276.508C1217.21 276.506 1218.19 276.509 1219.17 276.513C1220.04 276.509 1220.04 276.509 1220.92 276.505C1221.67 276.504 1221.67 276.504 1222.43 276.504C1223.8 276.466 1223.8 276.466 1225.16 275.391C1225.79 273.52 1225.73 271.772 1225.73 269.823C1225.73 269.401 1225.73 268.98 1225.73 268.546C1225.74 267.128 1225.74 265.71 1225.74 264.291C1225.74 263.277 1225.74 262.262 1225.74 261.247C1225.75 259.058 1225.75 256.868 1225.76 254.679C1225.76 251.211 1225.77 247.742 1225.78 244.274C1225.81 234.411 1225.84 224.547 1225.86 214.683C1225.87 209.238 1225.88 203.793 1225.9 198.349C1225.91 195.47 1225.92 192.591 1225.92 189.712C1225.92 186.997 1225.93 184.283 1225.94 181.568C1225.95 180.578 1225.95 179.588 1225.94 178.597C1225.93 171.142 1226.44 163.847 1228.91 156.741C1229.1 156.2 1229.1 156.2 1229.28 155.649C1231.74 148.831 1235.34 142.418 1240.03 136.894C1240.36 136.502 1240.36 136.502 1240.7 136.103C1247.09 128.637 1254.97 123.005 1264.03 119.18C1264.34 119.048 1264.65 118.917 1264.96 118.781C1272.43 115.79 1279.44 115.341 1287.38 115.392C1288.49 115.392 1289.59 115.391 1290.7 115.389C1293.67 115.386 1296.65 115.396 1299.63 115.408C1302.76 115.418 1305.89 115.418 1309.03 115.419C1314.28 115.422 1319.54 115.433 1324.8 115.448C1330.19 115.464 1335.58 115.475 1340.97 115.479C1341.3 115.479 1341.63 115.479 1341.97 115.479C1343.31 115.48 1344.64 115.481 1345.98 115.482C1351.45 115.486 1356.93 115.495 1362.41 115.504C1363.65 115.506 1364.89 115.508 1366.13 115.509C1369.67 115.514 1373.21 115.521 1376.75 115.532C1377.82 115.535 1378.89 115.538 1379.95 115.539C1384.85 115.546 1389.75 115.578 1394.65 115.798C1395.18 115.817 1395.18 115.817 1395.72 115.836C1399.55 116.041 1402.75 117.372 1405.53 120.007C1409.31 124.598 1409.89 130.67 1409.51 136.399C1408.86 140.824 1407.49 144.693 1404.02 147.668C1400.23 150.366 1396.35 151.469 1391.72 151.412C1391.09 151.413 1391.09 151.413 1390.45 151.415C1389.05 151.416 1387.65 151.406 1386.25 151.397C1385.24 151.396 1384.24 151.395 1383.23 151.396C1381.07 151.395 1378.9 151.389 1376.74 151.381C1373.31 151.368 1369.88 151.369 1366.45 151.372C1356.7 151.378 1346.95 151.37 1337.2 151.342C1331.81 151.327 1326.42 151.324 1321.04 151.334C1317.63 151.34 1314.23 151.331 1310.83 151.31C1308.7 151.301 1306.58 151.306 1304.45 151.316C1303.47 151.317 1302.5 151.313 1301.52 151.302C1292.53 151.207 1285.66 153.408 1278.68 159.152C1278.27 159.456 1277.86 159.759 1277.44 160.072C1273.64 163.331 1271 168.207 1269.76 173.002C1269.68 173.31 1269.6 173.617 1269.52 173.934C1268.56 178.012 1268.63 182.081 1268.64 186.241C1268.63 187.072 1268.63 187.903 1268.63 188.734C1268.62 190.978 1268.62 193.222 1268.62 195.466C1268.62 197.345 1268.62 199.223 1268.62 201.101C1268.61 205.534 1268.61 209.966 1268.62 214.399C1268.62 218.962 1268.61 223.526 1268.6 228.089C1268.59 232.017 1268.59 235.945 1268.59 239.872C1268.59 242.214 1268.59 244.556 1268.58 246.897C1268.58 249.1 1268.58 251.302 1268.59 253.504C1268.59 254.309 1268.59 255.114 1268.58 255.919C1268.55 261.773 1268.72 267.204 1272.97 271.708C1278.54 276.962 1285.91 276.454 1293.07 276.448C1293.88 276.45 1294.69 276.451 1295.5 276.453C1297.71 276.457 1299.93 276.457 1302.15 276.458C1304.54 276.459 1306.93 276.462 1309.32 276.466C1313.47 276.472 1317.61 276.476 1321.76 276.479C1328.32 276.484 1334.88 276.494 1341.43 276.505C1343.68 276.509 1345.93 276.512 1348.17 276.516C1348.73 276.517 1349.29 276.518 1349.87 276.519C1356.26 276.529 1362.64 276.538 1369.03 276.547C1369.61 276.548 1370.2 276.549 1370.8 276.55C1380.25 276.563 1389.69 276.572 1399.14 276.58C1408.85 276.589 1418.57 276.603 1428.28 276.622C1434.26 276.634 1440.25 276.641 1446.23 276.642C1450.33 276.643 1454.44 276.649 1458.54 276.66C1460.91 276.666 1463.27 276.669 1465.64 276.666C1467.81 276.664 1469.98 276.668 1472.15 276.677C1472.93 276.68 1473.71 276.68 1474.49 276.677C1481.84 276.651 1489.11 277.492 1496.08 279.935C1496.73 280.159 1496.73 280.159 1497.4 280.387C1503.81 282.667 1509.3 285.917 1514.57 290.23C1515.2 290.739 1515.2 290.739 1515.85 291.258C1524.71 298.765 1531.2 309.89 1534.33 320.99C1534.43 321.324 1534.52 321.658 1534.62 322.002C1536.49 329.146 1536.53 336.248 1536.53 343.576C1536.54 344.707 1536.54 345.838 1536.55 346.969C1536.56 350.028 1536.57 353.086 1536.58 356.145C1536.59 359.368 1536.6 362.592 1536.61 365.815C1536.63 371.239 1536.65 376.663 1536.66 382.087C1536.68 387.625 1536.7 393.162 1536.72 398.699C1536.72 399.039 1536.72 399.378 1536.72 399.728C1536.72 401.094 1536.73 402.46 1536.73 403.826C1536.77 412.601 1536.8 421.377 1536.82 430.152C1536.82 430.747 1536.83 431.343 1536.83 431.957C1536.84 434.839 1536.84 437.72 1536.85 440.602C1536.85 441.69 1536.85 442.778 1536.85 443.865C1536.86 444.388 1536.86 444.911 1536.86 445.45C1536.86 448.364 1536.88 451.278 1536.91 454.192C1536.93 455.881 1536.95 457.571 1536.96 459.26C1536.97 460.013 1536.98 460.766 1536.99 461.519C1537.11 468.392 1536.34 474.628 1532.57 480.478C1529.76 483.357 1526.39 485.402 1522.33 485.753C1520.72 485.774 1519.11 485.793 1517.5 485.793C1516.47 485.795 1515.45 485.813 1514.42 485.832C1508.55 485.882 1503.57 484.767 1499.21 480.663C1495.43 476.744 1495.02 471.335 1495.06 466.145C1495.06 465.607 1495.06 465.069 1495.06 464.514C1495.05 462.724 1495.06 460.934 1495.06 459.145C1495.06 457.856 1495.06 456.566 1495.06 455.277C1495.05 452.508 1495.05 449.738 1495.06 446.968C1495.06 442.955 1495.06 438.943 1495.05 434.93C1495.04 428.406 1495.03 421.883 1495.03 415.359C1495.03 414.969 1495.03 414.58 1495.03 414.178C1495.03 409.832 1495.03 405.486 1495.03 401.141C1495.03 399.566 1495.03 397.991 1495.03 396.416C1495.03 396.028 1495.03 395.639 1495.03 395.239C1495.03 388.742 1495.02 382.244 1495.01 375.747C1495 371.748 1495 367.75 1495.01 363.751C1495.01 360.681 1495.01 357.611 1495 354.541C1495 353.288 1495 352.035 1495 350.782C1495.05 340.068 1494.33 330.159 1486.5 322.01C1479.09 314.921 1470.62 313.24 1460.59 313.289C1459.82 313.288 1459.04 313.285 1458.27 313.282C1456.17 313.276 1454.06 313.279 1451.96 313.284C1449.68 313.287 1447.4 313.282 1445.12 313.278C1440.67 313.271 1436.22 313.273 1431.76 313.277C1428.14 313.28 1424.52 313.281 1420.9 313.279C1420.39 313.279 1419.87 313.279 1419.34 313.278C1418.29 313.278 1417.24 313.277 1416.19 313.277C1406.37 313.273 1396.55 313.278 1386.73 313.286C1378.31 313.292 1369.89 313.291 1361.47 313.284C1351.68 313.276 1341.89 313.273 1332.1 313.278C1331.06 313.278 1330.02 313.279 1328.97 313.279C1328.46 313.279 1327.94 313.28 1327.42 313.28C1323.8 313.281 1320.18 313.279 1316.57 313.275C1312.16 313.271 1307.76 313.272 1303.35 313.28C1301.1 313.284 1298.86 313.286 1296.61 313.281C1294.55 313.276 1292.49 313.279 1290.44 313.287C1289.69 313.288 1288.95 313.288 1288.21 313.284C1282.93 313.26 1277.99 313.479 1273.73 316.94C1270.35 320.39 1268.71 324.562 1268.71 329.379C1268.71 329.884 1268.7 330.389 1268.7 330.909C1268.7 331.461 1268.7 332.012 1268.7 332.58C1268.7 333.169 1268.7 333.757 1268.7 334.363C1268.7 335.995 1268.7 337.626 1268.69 339.258C1268.69 341.019 1268.69 342.779 1268.69 344.539C1268.68 347.59 1268.68 350.641 1268.67 353.691C1268.67 358.515 1268.66 363.339 1268.65 368.164C1268.64 369.815 1268.64 371.466 1268.64 373.117C1268.64 373.53 1268.63 373.942 1268.63 374.367C1268.62 379.063 1268.61 383.76 1268.6 388.456C1268.6 388.885 1268.6 389.314 1268.6 389.757C1268.59 396.71 1268.58 403.663 1268.57 410.617C1268.56 417.759 1268.55 424.901 1268.53 432.043C1268.52 436.447 1268.51 440.85 1268.51 445.253C1268.51 448.273 1268.5 451.292 1268.49 454.311C1268.49 456.052 1268.48 457.793 1268.49 459.534C1268.49 461.424 1268.48 463.314 1268.47 465.204C1268.48 466.023 1268.48 466.023 1268.48 466.858C1268.43 472.8 1266.86 477.785 1262.58 482.024C1256.45 486.91 1247.92 486.135 1240.53 485.61C1235.73 485.067 1232.2 482.857 1229.13 479.18C1227.15 476.074 1226.09 473.252 1226.09 469.576C1226.08 469.029 1226.08 468.481 1226.08 467.918C1226.08 467.317 1226.08 466.715 1226.08 466.096C1226.08 465.138 1226.08 465.138 1226.07 464.161C1226.07 462.387 1226.06 460.614 1226.06 458.84C1226.06 456.927 1226.05 455.015 1226.05 453.102C1226.04 449.788 1226.03 446.474 1226.02 443.159C1226.02 438.365 1226 433.571 1225.99 428.777C1225.97 420.996 1225.95 413.215 1225.93 405.434C1225.93 404.968 1225.93 404.502 1225.93 404.022C1225.92 400.243 1225.91 396.463 1225.9 392.683C1225.9 389.379 1225.89 386.076 1225.88 382.772C1225.88 382.306 1225.88 381.841 1225.88 381.362C1225.86 373.61 1225.84 365.859 1225.82 358.107C1225.81 353.324 1225.79 348.541 1225.78 343.757C1225.78 340.481 1225.77 337.205 1225.76 333.929C1225.76 332.037 1225.75 330.146 1225.75 328.254C1225.75 326.206 1225.74 324.158 1225.73 322.109C1225.73 321.508 1225.73 320.907 1225.73 320.288C1225.73 319.741 1225.73 319.194 1225.73 318.63C1225.72 317.92 1225.72 317.92 1225.72 317.197C1225.66 316.035 1225.55 315.067 1225.16 313.972C1223.85 313.319 1222.88 313.414 1221.41 313.413C1220.82 313.411 1220.23 313.409 1219.62 313.407C1218.96 313.407 1218.3 313.408 1217.64 313.408C1216.94 313.407 1216.24 313.405 1215.54 313.404C1213.62 313.4 1211.69 313.399 1209.77 313.399C1207.69 313.398 1205.62 313.394 1203.54 313.391C1199.01 313.384 1194.47 313.381 1189.93 313.379C1187.09 313.377 1184.26 313.375 1181.42 313.373C1173.58 313.367 1165.73 313.362 1157.89 313.36C1157.38 313.36 1156.88 313.36 1156.36 313.36C1155.86 313.36 1155.36 313.36 1154.84 313.359C1153.82 313.359 1152.79 313.359 1151.77 313.359C1151.27 313.359 1150.76 313.359 1150.24 313.358C1142.04 313.357 1133.84 313.348 1125.64 313.336C1117.23 313.325 1108.81 313.319 1100.4 313.318C1095.67 313.317 1090.94 313.315 1086.22 313.306C1082.19 313.298 1078.17 313.296 1074.14 313.3C1072.09 313.302 1070.03 313.301 1067.98 313.294C1066.1 313.288 1064.22 313.288 1062.34 313.294C1061.34 313.296 1060.34 313.29 1059.34 313.284C1053.81 313.314 1048.49 314.047 1044.28 317.929C1040.89 322.326 1040.67 327.42 1040.68 332.77C1040.68 333.355 1040.68 333.941 1040.68 334.543C1040.68 336.156 1040.68 337.769 1040.68 339.382C1040.68 341.126 1040.67 342.87 1040.67 344.614C1040.66 347.633 1040.66 350.653 1040.66 353.672C1040.66 358.044 1040.65 362.417 1040.64 366.789C1040.63 373.893 1040.62 380.997 1040.61 388.101C1040.61 388.526 1040.61 388.951 1040.61 389.388C1040.6 394.125 1040.6 398.862 1040.59 403.599C1040.59 405.316 1040.59 407.033 1040.59 408.75C1040.59 409.174 1040.59 409.597 1040.59 410.034C1040.58 417.11 1040.57 424.185 1040.55 431.261C1040.54 435.62 1040.54 439.978 1040.54 444.337C1040.54 447.326 1040.53 450.316 1040.52 453.305C1040.52 455.027 1040.52 456.749 1040.52 458.471C1040.52 460.343 1040.52 462.215 1040.51 464.087C1040.51 464.624 1040.51 465.16 1040.52 465.713C1040.47 471.313 1039.7 476.849 1035.86 481.158C1031.28 485.519 1024.95 485.716 1018.98 485.764C1018.4 485.779 1017.82 485.793 1017.23 485.808C1012.04 485.845 1007.12 484.908 1003.03 481.537C999.421 477.906 998.091 474.048 998.062 469.033C998.064 468.555 998.066 468.078 998.068 467.586C998.067 467.069 998.065 466.553 998.064 466.021C998.059 464.286 998.062 462.551 998.065 460.816C998.064 459.561 998.062 458.307 998.06 457.052C998.056 454.322 998.055 451.591 998.056 448.861C998.059 444.8 998.056 440.74 998.052 436.679C998.044 429.004 998.043 421.33 998.045 413.655C998.046 407.727 998.045 401.799 998.043 395.871C998.042 395.02 998.042 394.168 998.042 393.317C998.041 392.034 998.041 390.75 998.04 389.467C998.036 377.534 998.034 365.601 998.036 353.668C998.036 353.218 998.036 352.768 998.036 352.304C998.037 350.024 998.037 347.743 998.038 345.463C998.038 345.01 998.038 344.557 998.038 344.09C998.038 343.174 998.038 342.258 998.038 341.342C998.041 327.096 998.037 312.85 998.028 298.604C998.018 282.598 998.012 266.592 998.014 250.586C998.014 248.878 998.015 247.171 998.015 245.463C998.015 245.043 998.015 244.622 998.015 244.189C998.016 237.847 998.012 231.505 998.007 225.162C998.001 217.946 998 210.73 998.006 203.514C998.01 199.478 998.009 195.441 998.002 191.405C997.998 188.388 998.001 185.37 998.007 182.353C998.008 181.135 998.007 179.917 998.003 178.699C997.984 172.498 998.067 166.655 999.681 160.636C999.776 160.265 999.871 159.893 999.969 159.511C1002.42 150.61 1007.21 142.233 1013.52 135.536C1014.57 134.428 1014.57 134.428 1015.51 133.176C1017.36 130.943 1019.7 129.273 1021.98 127.496C1022.41 127.157 1022.83 126.817 1023.27 126.468C1037.27 115.743 1053.57 115.053 1070.51 115.058Z"
    fill="black"
  />
  <path
    d="M1629.55 115.024C1630.42 115.026 1631.29 115.026 1632.15 115.027C1633.97 115.029 1635.78 115.036 1637.59 115.047C1639.9 115.061 1642.21 115.067 1644.51 115.069C1646.74 115.071 1648.96 115.079 1651.18 115.086C1651.8 115.087 1651.8 115.087 1652.44 115.089C1669.3 115.138 1669.3 115.138 1673.82 119.367C1675.58 121.605 1676.42 123.825 1677.28 126.492C1677.42 126.939 1677.57 127.385 1677.72 127.845C1680.05 135.078 1682.11 142.399 1684.22 149.699C1684.92 152.147 1685.63 154.594 1686.35 157.041C1686.44 157.378 1686.54 157.714 1686.64 158.061C1688 162.73 1689.44 167.364 1691.05 171.953C1691.98 174.629 1692.59 177.185 1692.9 180.009C1693.05 181.23 1693.05 181.23 1694.09 182.575C1694.37 183.609 1694.37 183.609 1694.58 184.743C1694.83 185.997 1695.1 187.087 1695.59 188.273C1696.06 189.486 1696.27 190.517 1696.45 191.804C1697.05 195.359 1698.22 198.722 1699.33 202.144C1700 204.221 1700.6 206.311 1701.15 208.423C1701.64 210.222 1702.18 212.006 1702.72 213.792C1703.76 217.293 1704.71 220.813 1705.61 224.354C1706.2 226.645 1706.89 228.876 1707.66 231.114C1708.07 232.377 1708.4 233.65 1708.7 234.944C1709.53 238.327 1710.5 241.665 1711.47 245.009C1711.8 246.165 1712.13 247.321 1712.46 248.477C1712.62 249.049 1712.79 249.622 1712.96 250.211C1714.45 255.414 1714.45 255.414 1714.94 257.15C1715.27 258.3 1715.6 259.45 1715.94 260.6C1716.97 264.192 1717.96 267.794 1718.91 271.408C1719.86 274.938 1720.89 278.446 1721.91 281.957C1722.71 284.703 1723.48 287.447 1724.16 290.223C1724.98 293.546 1725.87 296.827 1727.14 300.01C1727.87 301.889 1728.25 303.775 1728.58 305.76C1728.87 307.057 1729.34 308.194 1729.84 309.424C1730.08 310.318 1730.31 311.217 1730.52 312.118C1731.36 315.543 1732.33 318.922 1733.31 322.307C1733.65 323.463 1733.98 324.619 1734.31 325.776C1734.47 326.348 1734.63 326.92 1734.8 327.51C1740.27 346.587 1740.27 346.587 1740.76 348.323C1741.09 349.473 1741.42 350.623 1741.75 351.772C1742.45 354.198 1743.15 356.622 1743.79 359.063C1743.88 359.405 1743.97 359.747 1744.07 360.099C1744.32 361.064 1744.57 362.029 1744.82 362.995C1745.09 364.362 1745.09 364.362 1745.73 364.921C1745.99 366.276 1746.21 367.638 1746.42 369.003C1746.7 370.296 1747.11 371.188 1747.71 372.353C1747.97 373.255 1748.21 374.165 1748.43 375.078C1748.62 375.86 1748.62 375.86 1748.81 376.658C1749.07 377.752 1749.33 378.846 1749.59 379.94C1749.78 380.722 1749.78 380.722 1749.98 381.52C1750.09 381.995 1750.21 382.47 1750.32 382.96C1750.64 384.224 1750.64 384.224 1751.19 385.24C1751.79 386.436 1752.06 387.589 1752.37 388.891C1753.05 391.722 1753.84 394.515 1754.65 397.312C1755.16 399.124 1755.65 400.942 1756.12 402.765C1756.81 405.353 1757.57 407.899 1758.39 410.445C1759.41 413.61 1760.23 416.795 1760.95 420.041C1761.39 422.029 1761.86 423.97 1762.61 425.867C1762.94 426.031 1763.26 426.195 1763.6 426.363C1763.6 425.799 1763.6 425.235 1763.6 424.653C1763.57 409.021 1763.62 393.391 1763.71 377.759C1763.72 376.758 1763.72 375.757 1763.73 374.756C1763.75 370.604 1763.77 366.452 1763.8 362.299C1764.04 318.688 1764.04 318.688 1764.11 275.076C1764.11 274.378 1764.11 274.378 1764.11 273.666C1764.11 264.87 1764.1 256.074 1764.09 247.278C1764.08 244.095 1764.08 240.912 1764.07 237.729C1764.07 235.57 1764.06 233.411 1764.06 231.252C1764.05 229.645 1764.05 228.039 1764.05 226.432C1764.05 225.59 1764.05 225.59 1764.04 224.732C1764.04 222.433 1764.08 220.18 1764.34 217.896C1764.76 214.224 1764.67 210.525 1764.67 206.834C1764.68 205.987 1764.68 205.14 1764.68 204.293C1764.69 202.478 1764.69 200.662 1764.69 198.847C1764.7 195.973 1764.71 193.099 1764.72 190.225C1764.75 182.055 1764.78 173.885 1764.79 165.715C1764.8 161.196 1764.82 156.677 1764.84 152.159C1764.85 149.771 1764.86 147.384 1764.86 144.997C1764.86 142.751 1764.87 140.506 1764.88 138.261C1764.88 137.441 1764.88 136.62 1764.88 135.799C1764.87 129.671 1765.21 123.9 1769.56 119.151C1774.16 115.617 1778.38 115.013 1784.02 115.063C1784.85 115.069 1784.85 115.069 1785.7 115.075C1792.56 115.168 1797.66 115.485 1802.73 120.544C1804.84 123.606 1806.33 126.909 1806.4 130.656C1806.41 131.071 1806.42 131.486 1806.43 131.914C1806.44 132.368 1806.45 132.821 1806.46 133.288C1806.47 133.77 1806.48 134.253 1806.49 134.75C1806.52 136.368 1806.55 137.986 1806.58 139.604C1806.59 140.171 1806.6 140.739 1806.61 141.323C1806.86 155.065 1806.88 168.808 1806.88 182.552C1806.88 186.32 1806.88 190.088 1806.89 193.855C1806.89 202.932 1806.9 212.009 1806.9 221.085C1806.9 225.388 1806.9 229.691 1806.9 233.994C1806.91 248.766 1806.92 263.538 1806.92 278.31C1806.92 279.231 1806.92 280.152 1806.92 281.073C1806.92 281.996 1806.92 282.919 1806.92 283.843C1806.92 285.694 1806.92 287.545 1806.92 289.396C1806.92 290.085 1806.92 290.085 1806.92 290.787C1806.92 305.721 1806.93 320.655 1806.94 335.588C1806.95 351.437 1806.96 367.285 1806.96 383.133C1806.96 384.872 1806.96 386.611 1806.96 388.35C1806.96 388.779 1806.96 389.207 1806.96 389.648C1806.96 396.519 1806.97 403.39 1806.97 410.261C1806.98 417.158 1806.98 424.054 1806.98 430.95C1806.98 435.041 1806.98 439.131 1806.99 443.222C1806.99 446.281 1806.99 449.339 1806.98 452.398C1806.98 453.631 1806.98 454.864 1806.99 456.098C1807.05 475.334 1807.05 475.334 1801.21 481.766C1797.53 485.224 1793.16 485.896 1788.28 485.903C1787.87 485.906 1787.46 485.908 1787.04 485.911C1785.69 485.918 1784.34 485.921 1782.99 485.924C1782.05 485.927 1781.11 485.93 1780.17 485.933C1778.19 485.938 1776.22 485.941 1774.24 485.942C1771.72 485.945 1769.2 485.957 1766.68 485.971C1764.73 485.98 1762.79 485.983 1760.84 485.984C1759.91 485.985 1758.98 485.989 1758.06 485.996C1750.84 486.043 1745.35 485.785 1739.92 480.557C1736.17 476.516 1735.02 471.082 1733.56 465.91C1733.37 465.249 1733.18 464.588 1732.99 463.927C1732.34 461.649 1731.69 459.37 1731.05 457.089C1730.78 456.14 1730.51 455.191 1730.24 454.243C1730.09 453.693 1729.93 453.143 1729.77 452.577C1729.42 451.396 1729.03 450.266 1728.57 449.125C1727.68 446.897 1727.22 444.575 1726.7 442.24C1726.25 440.241 1725.73 438.28 1725.05 436.345C1724.19 433.904 1723.53 431.445 1722.92 428.933C1722.34 426.549 1721.71 424.223 1720.9 421.903C1719.99 419.28 1719.32 416.637 1718.67 413.94C1718.17 411.9 1717.59 409.922 1716.9 407.936C1716.02 405.412 1715.41 402.881 1714.83 400.274C1714.16 397.376 1713.3 394.532 1712.46 391.678C1712.13 390.522 1711.8 389.366 1711.47 388.209C1711.3 387.637 1711.14 387.065 1710.97 386.475C1705.51 367.398 1705.51 367.398 1705.01 365.662C1704.68 364.512 1704.35 363.362 1704.02 362.213C1703.32 359.787 1702.62 357.363 1701.98 354.921C1701.89 354.58 1701.8 354.238 1701.71 353.886C1701.46 352.921 1701.21 351.956 1700.96 350.99C1700.69 349.623 1700.69 349.623 1700.05 349.064C1699.88 348.252 1699.74 347.436 1699.61 346.618C1699.01 343.178 1698.08 339.921 1696.79 336.677C1696.07 334.822 1695.71 332.969 1695.34 331.017C1694.77 328.199 1693.88 325.474 1692.82 322.803C1692.08 320.923 1691.71 319.037 1691.37 317.052C1691.08 315.755 1690.61 314.618 1690.12 313.388C1689.87 312.494 1689.65 311.595 1689.43 310.694C1688.6 307.269 1687.62 303.89 1686.64 300.505C1686.31 299.349 1685.98 298.193 1685.65 297.036C1685.48 296.464 1685.32 295.892 1685.15 295.302C1681.68 283.162 1681.68 283.162 1681.18 281.426C1680.85 280.276 1680.52 279.126 1680.19 277.977C1679.49 275.552 1678.79 273.127 1678.15 270.686C1678.06 270.344 1677.97 270.002 1677.87 269.65C1677.62 268.685 1677.37 267.72 1677.12 266.755C1676.85 265.387 1676.85 265.387 1676.21 264.829C1675.95 263.457 1675.73 262.079 1675.52 260.698C1675.28 259.275 1675.28 259.275 1674.23 257.892C1674.04 257.062 1673.89 256.224 1673.76 255.383C1673.18 251.96 1672.25 248.73 1670.97 245.504C1670.25 243.649 1669.89 241.796 1669.52 239.845C1668.95 237.026 1668.06 234.301 1667 231.63C1666.26 229.75 1665.89 227.865 1665.55 225.879C1665.27 224.583 1664.79 223.445 1664.3 222.215C1664.06 221.342 1663.85 220.464 1663.64 219.583C1663.05 217.121 1662.34 214.717 1661.57 212.305C1660.68 209.532 1659.91 206.76 1659.23 203.926C1658.77 202.165 1658.22 200.441 1657.66 198.71C1656.51 195.171 1655.64 191.595 1654.81 187.972C1654.04 184.672 1653.14 181.429 1652.14 178.191C1651.39 175.727 1651.39 175.727 1651.39 174.647C1650.9 174.647 1650.4 174.647 1649.9 174.647C1649.95 175.288 1649.95 175.288 1650.01 175.942C1650.28 179.518 1650.45 183.076 1650.46 186.663C1650.46 187.004 1650.46 187.344 1650.46 187.695C1650.46 189.992 1650.35 192.276 1650.22 194.568C1649.9 200.033 1649.79 205.488 1649.74 210.961C1649.73 211.959 1649.72 212.958 1649.71 213.956C1649.68 216.718 1649.66 219.48 1649.63 222.242C1649.62 224.037 1649.6 225.833 1649.59 227.629C1649.37 252.246 1649.36 276.864 1649.37 301.482C1649.37 301.964 1649.37 302.445 1649.37 302.941C1649.38 317.31 1649.39 331.678 1649.4 346.046C1649.4 351.196 1649.41 356.346 1649.41 361.495C1649.41 362.007 1649.41 362.519 1649.41 363.046C1649.42 371.56 1649.42 380.075 1649.43 388.589C1649.43 393.791 1649.43 398.993 1649.44 404.194C1649.44 407.717 1649.45 411.239 1649.45 414.762C1649.45 416.791 1649.45 418.819 1649.45 420.848C1649.46 422.699 1649.46 424.551 1649.46 426.402C1649.46 427.394 1649.46 428.386 1649.46 429.378C1649.46 429.959 1649.46 430.539 1649.46 431.137C1649.46 431.643 1649.46 432.148 1649.46 432.668C1649.4 433.796 1649.4 433.796 1648.9 434.291C1648.86 435.23 1648.86 436.17 1648.86 437.109C1648.87 438.016 1648.87 438.016 1648.87 438.941C1648.88 439.43 1648.88 439.43 1648.88 439.929C1648.89 440.955 1648.9 441.982 1648.9 443.009C1648.91 445.93 1648.93 448.85 1648.95 451.771C1649.14 476.455 1649.14 476.455 1644.58 481.275C1639.76 485.348 1632.87 485.417 1626.87 485.421C1626.38 485.427 1625.89 485.433 1625.38 485.439C1620.09 485.45 1615.95 484.612 1611.66 481.364C1607.74 477.453 1607.14 471.69 1607.13 466.429C1607.13 465.893 1607.13 465.357 1607.13 464.805C1607.13 464.229 1607.13 463.654 1607.13 463.061C1607.13 461.461 1607.13 459.86 1607.13 458.26C1607.13 456.52 1607.12 454.78 1607.12 453.04C1607.12 449.587 1607.12 446.135 1607.12 442.682C1607.12 438.547 1607.11 434.412 1607.11 430.277C1607.1 420.283 1607.1 410.289 1607.1 400.296C1607.1 395.568 1607.09 390.841 1607.09 386.113C1607.09 369.931 1607.08 353.75 1607.08 337.568C1607.08 336.552 1607.08 335.537 1607.08 334.521C1607.08 333.503 1607.08 332.484 1607.08 331.466C1607.08 329.423 1607.08 327.38 1607.08 325.338C1607.08 324.831 1607.08 324.325 1607.08 323.803C1607.07 307.378 1607.07 290.953 1607.06 274.527C1607.04 257.163 1607.04 239.799 1607.04 222.434C1607.04 220.528 1607.04 218.622 1607.04 216.716C1607.04 216.247 1607.04 215.778 1607.04 215.294C1607.03 207.74 1607.03 200.186 1607.02 192.633C1607.01 185.041 1607.01 177.449 1607.02 169.857C1607.02 165.346 1607.02 160.836 1607.01 156.326C1607 153.312 1607.01 150.298 1607.01 147.284C1607.01 145.568 1607.01 143.851 1607.01 142.135C1607 140.283 1607.01 138.431 1607.01 136.579C1607.01 136.05 1607 135.521 1607 134.977C1607.04 129.03 1608.26 123.104 1612.57 118.731C1617.52 114.666 1623.48 114.977 1629.55 115.024Z"
    fill="black"
  />
  <path
    d="M842.41 115.101C843.592 115.104 844.773 115.101 845.955 115.098C861.962 115.088 861.962 115.088 867.34 119.634C872.178 124.596 873.113 132.207 874.729 138.723C874.987 139.752 875.245 140.781 875.503 141.81C876.203 144.604 876.899 147.399 877.595 150.195C878.335 153.166 879.078 156.137 879.821 159.107C881.077 164.132 882.331 169.158 883.583 174.184C884.847 179.256 886.113 184.328 887.381 189.399C887.534 190.015 887.688 190.63 887.847 191.263C888.077 192.184 888.077 192.184 888.312 193.123C895.329 221.194 902.311 249.272 909.108 277.397C909.631 279.56 910.161 281.722 910.694 283.883C911.821 288.474 912.903 292.997 913.534 297.688C914.018 300.569 914.938 303.338 915.791 306.127C916.199 307.492 916.603 308.858 917.004 310.224C917.107 310.575 917.21 310.925 917.316 311.286C918.435 315.121 919.439 318.983 920.422 322.854C920.557 323.386 920.557 323.386 920.695 323.929C921.259 326.156 921.819 328.385 922.377 330.613C922.782 332.225 923.188 333.837 923.595 335.449C926.955 348.774 930.255 362.115 933.535 375.46C933.674 376.028 933.674 376.028 933.817 376.608C934.007 377.384 934.198 378.16 934.389 378.936C936.882 389.08 939.398 399.219 941.912 409.358C942.9 413.344 943.886 417.331 944.872 421.319C945.414 423.513 945.957 425.707 946.499 427.901C946.696 428.698 946.696 428.698 946.898 429.512C948.411 435.631 949.936 441.746 951.491 447.854C952.033 449.987 952.569 452.12 953.106 454.254C953.496 455.793 953.896 457.33 954.296 458.867C956.171 466.228 957.286 472.803 953.329 479.69C950.949 483.279 947.386 485.395 943.216 486.357C935.927 487.528 927.295 487.43 920.997 483.229C914.414 477.659 913.558 467.863 911.773 459.913C911.533 458.855 911.293 457.798 911.053 456.74C910.421 453.953 909.792 451.166 909.164 448.379C907.198 439.662 905.222 430.946 903.235 422.233C902.985 421.134 902.734 420.034 902.484 418.934C901.741 415.674 900.995 412.415 900.242 409.157C900.01 408.15 899.779 407.142 899.549 406.135C897.486 395.772 897.486 395.772 891.106 387.719C886.09 384.754 878.628 385.249 873.025 385.266C872.307 385.265 871.589 385.263 870.872 385.261C868.946 385.257 867.021 385.258 865.095 385.262C863.066 385.264 861.036 385.262 859.006 385.26C855.601 385.258 852.195 385.261 848.79 385.266C844.87 385.271 840.95 385.269 837.03 385.264C833.645 385.259 830.26 385.259 826.875 385.261C824.862 385.263 822.849 385.263 820.835 385.26C818.942 385.257 817.048 385.259 815.155 385.265C814.141 385.266 813.127 385.264 812.114 385.26C805.741 385.289 798.996 385.352 793.861 389.59C789.38 394.24 788.379 401.537 787.007 407.601C786.796 408.514 786.585 409.427 786.373 410.34C785.926 412.273 785.482 414.206 785.04 416.141C784.351 419.161 783.654 422.179 782.956 425.197C782.139 428.728 781.324 432.258 780.511 435.789C778.796 443.236 777.062 450.678 775.304 458.114C774.88 459.91 774.459 461.707 774.039 463.504C773.783 464.588 773.527 465.671 773.27 466.754C773.162 467.222 773.053 467.689 772.941 468.171C770.055 480.27 770.055 480.27 764.546 483.725C760.188 486.234 756.654 486.793 751.682 486.762C751.13 486.772 750.579 486.782 750.011 486.792C744.393 486.788 739.051 485.173 734.865 481.292C731.418 477.576 730.848 473.366 731.03 468.446C731.204 465.534 731.848 462.811 732.566 459.991C732.699 459.452 732.833 458.913 732.97 458.358C733.249 457.233 733.53 456.108 733.813 454.983C734.205 453.419 734.592 451.854 734.976 450.288C735.751 447.133 736.533 443.979 737.316 440.825C737.617 439.61 737.918 438.395 738.22 437.179C738.955 434.212 739.692 431.246 740.428 428.279C740.949 426.18 741.47 424.082 741.991 421.983C746.617 403.34 751.262 384.702 755.926 366.069C756.293 364.602 756.661 363.134 757.028 361.667C759.204 352.971 761.381 344.275 763.561 335.581C764.922 330.155 766.282 324.73 767.64 319.304C767.806 318.641 767.806 318.641 767.975 317.965C771.467 304.015 774.899 290.053 778.296 276.08C781.29 263.767 784.315 251.462 787.396 239.17C787.488 238.805 787.579 238.44 787.674 238.063C788.683 234.035 789.694 230.007 790.706 225.98C792.639 218.284 794.566 210.587 796.492 202.889C796.586 202.515 796.68 202.14 796.776 201.754C799.871 189.389 802.932 177.015 805.93 164.625C806.103 163.909 806.276 163.193 806.45 162.476C807.083 159.859 807.717 157.242 808.349 154.624C809.697 149.049 811.051 143.475 812.429 137.907C812.657 136.987 812.882 136.067 813.107 135.147C816.539 121.081 816.539 121.081 822.948 117.17C828.72 114.338 836.112 115.084 842.41 115.101ZM836.873 178.481C835.821 180.263 835.408 181.704 834.992 183.727C834.879 184.261 834.879 184.261 834.764 184.805C834.512 186.007 834.269 187.211 834.026 188.415C833.842 189.301 833.658 190.187 833.473 191.072C833.067 193.021 832.666 194.97 832.267 196.92C831.616 200.104 830.957 203.287 830.296 206.468C829.554 210.045 828.813 213.623 828.075 217.2C825.885 227.814 823.673 238.423 821.456 249.031C820.984 251.292 820.512 253.553 820.039 255.814C819.469 258.542 818.899 261.27 818.329 263.998C816.484 272.83 814.64 281.661 812.799 290.494C812.466 292.09 812.133 293.687 811.799 295.284C810.816 299.997 809.835 304.71 808.855 309.423C808.617 310.57 808.378 311.717 808.139 312.864C807.733 314.815 807.328 316.766 806.924 318.717C806.772 319.452 806.619 320.188 806.466 320.923C806.254 321.94 806.044 322.957 805.834 323.974C805.714 324.55 805.595 325.126 805.471 325.72C804.339 331.663 803.822 337.103 807.379 342.352C810.922 346.357 816.141 349.074 821.444 349.565C824.817 349.751 828.188 349.725 831.565 349.695C832.795 349.697 834.024 349.701 835.253 349.706C837.741 349.714 840.228 349.71 842.715 349.699C846.073 349.688 849.427 349.736 852.784 349.799C854.257 349.821 855.73 349.841 857.203 349.86C858.12 349.874 859.037 349.891 859.954 349.911C867.278 350.065 873.042 349.012 878.56 343.745C881.827 340.134 883.153 335.686 883.023 330.853C882.73 329.321 882.342 327.847 881.911 326.348C881.556 324.983 881.387 323.734 881.288 322.331C881.128 320.286 880.627 318.599 879.927 316.681C879.338 314.803 879.087 312.883 878.79 310.94C878.601 309.782 878.367 308.68 878.064 307.549C877.622 305.898 877.339 304.247 877.072 302.56C876.81 300.913 876.512 299.393 876.049 297.787C875.665 296.433 875.485 295.33 875.367 293.945C875.224 292.409 874.945 291.18 874.344 289.761C873.501 287.723 873.403 285.796 873.259 283.611C873.109 282.305 872.817 281.259 872.36 280.03C871.571 277.908 871.425 275.925 871.275 273.677C871.124 272.379 870.83 271.335 870.376 270.114C869.751 268.431 869.503 266.946 869.384 265.155C869.235 262.966 868.781 261.196 868.024 259.149C867.427 257.269 867.184 255.342 866.889 253.395C866.67 251.931 866.67 251.931 866.129 250.218C865.73 248.783 865.56 247.599 865.447 246.128C865.27 244.03 864.775 242.293 864.056 240.325C863.464 238.435 863.216 236.502 862.919 234.547C862.704 233.105 862.704 233.105 862.192 231.47C861.572 229.26 861.282 227.045 860.952 224.776C860.726 223.207 860.726 223.207 860.208 221.522C859.767 219.977 859.543 218.585 859.34 216.997C858.913 214.032 858.153 211.25 857.294 208.382C855.442 202.145 853.891 195.746 853.513 189.231C853.332 186.284 852.441 183.808 851.281 181.111C851.132 180.731 850.984 180.351 850.831 179.959C849.92 177.836 848.958 176.489 846.846 175.471C842.764 174.233 839.492 175.038 836.873 178.481Z"
    fill="black"
  />
  <path
    d="M1925.01 115.004C1925.99 115.003 1926.96 115.003 1927.94 115.001C1930.56 114.999 1933.18 115 1935.8 115.002C1938.56 115.003 1941.32 115.002 1944.07 115.001C1948.7 115 1953.33 115.001 1957.96 115.004C1963.29 115.006 1968.63 115.005 1973.96 115.003C1978.56 115 1983.16 115 1987.76 115.001C1990.5 115.002 1993.24 115.002 1995.98 115.001C1998.55 114.999 2001.12 115 2003.7 115.003C2004.64 115.004 2005.58 115.004 2006.52 115.002C2024.14 114.984 2024.14 114.984 2029.05 118.662C2033.39 123.109 2034.03 127.755 2034 133.752C2033.87 139.107 2032.32 142.834 2028.55 146.657C2024.84 150.058 2020.92 150.841 2015.98 150.816C2015.58 150.816 2015.18 150.816 2014.76 150.816C2013.42 150.815 2012.08 150.811 2010.74 150.807C2009.77 150.806 2008.81 150.806 2007.85 150.805C2005.77 150.804 2003.69 150.802 2001.62 150.799C1998.33 150.795 1995.05 150.797 1991.76 150.802C1991.2 150.803 1990.65 150.803 1990.07 150.804C1988.94 150.806 1987.8 150.807 1986.67 150.809C1979.02 150.819 1971.36 150.826 1963.71 150.81C1958.55 150.799 1953.39 150.801 1948.23 150.817C1945.5 150.824 1942.77 150.826 1940.04 150.813C1937.47 150.8 1934.89 150.804 1932.32 150.82C1931.38 150.823 1930.45 150.82 1929.51 150.811C1921.17 150.734 1914.59 152.786 1908.06 158.197C1907.54 158.62 1907.54 158.62 1907.02 159.052C1901.18 164.353 1898.61 171.874 1897.66 179.513C1897.61 180.606 1897.59 181.701 1897.59 182.795C1897.59 183.435 1897.59 184.075 1897.58 184.734C1897.58 185.435 1897.58 186.136 1897.58 186.836C1897.58 187.581 1897.58 188.325 1897.58 189.07C1897.57 191.086 1897.57 193.101 1897.57 195.117C1897.57 196.379 1897.57 197.64 1897.57 198.901C1897.57 203.307 1897.56 207.713 1897.56 212.119C1897.56 216.217 1897.56 220.315 1897.55 224.413C1897.54 227.939 1897.54 231.465 1897.54 234.991C1897.54 237.094 1897.54 239.196 1897.54 241.299C1897.53 243.277 1897.53 245.256 1897.53 247.235C1897.54 247.958 1897.53 248.681 1897.53 249.404C1897.49 258.245 1897.49 258.245 1901.57 265.818C1902.72 266.897 1903.79 267.842 1905.08 268.744C1905.38 268.95 1905.67 269.157 1905.97 269.37C1910.25 271.959 1914.78 271.57 1919.61 271.542C1920.58 271.545 1921.55 271.549 1922.52 271.555C1925.14 271.567 1927.76 271.564 1930.38 271.558C1933.13 271.554 1935.88 271.565 1938.63 271.575C1943.85 271.591 1949.07 271.595 1954.28 271.594C1961.92 271.593 1969.55 271.61 1977.19 271.627C1978.32 271.63 1979.45 271.633 1980.58 271.635C1981.13 271.636 1981.69 271.638 1982.26 271.639C1985.52 271.646 1988.79 271.65 1992.06 271.65C1994.1 271.65 1996.14 271.652 1998.19 271.655C1999.12 271.656 2000.06 271.655 2001 271.654C2018.91 271.634 2018.91 271.634 2023.29 275.312C2027.66 280.505 2029.89 285.121 2029.39 292.043C2028.52 297.038 2025.91 300.978 2022.04 304.187C2018.34 306.776 2014.74 307.486 2010.3 307.473C2009.87 307.473 2009.44 307.474 2008.99 307.475C2007.54 307.476 2006.09 307.475 2004.64 307.473C2003.61 307.474 2002.57 307.475 2001.53 307.476C1999.29 307.478 1997.06 307.479 1994.82 307.479C1991.28 307.48 1987.74 307.486 1984.21 307.494C1983.31 307.496 1983.31 307.496 1982.4 307.498C1981.18 307.5 1979.95 307.503 1978.73 307.506C1970.5 307.523 1962.26 307.536 1954.02 307.535C1948.47 307.534 1942.91 307.542 1937.36 307.56C1934.42 307.569 1931.48 307.574 1928.54 307.568C1925.77 307.562 1923.01 307.568 1920.24 307.582C1919.23 307.586 1918.21 307.585 1917.2 307.579C1915.81 307.572 1914.42 307.581 1913.04 307.593C1912.64 307.587 1912.24 307.582 1911.83 307.576C1908.2 307.637 1905.92 309.207 1903.26 311.562C1898.97 316.44 1897.58 321.252 1897.58 327.759C1897.58 328.153 1897.58 328.546 1897.58 328.951C1897.57 330.265 1897.57 331.579 1897.57 332.893C1897.56 333.837 1897.56 334.781 1897.56 335.725C1897.55 338.823 1897.54 341.921 1897.54 345.018C1897.54 346.088 1897.53 347.157 1897.53 348.227C1897.52 353.254 1897.52 358.282 1897.51 363.31C1897.51 369.097 1897.49 374.884 1897.47 380.672C1897.46 385.155 1897.45 389.638 1897.45 394.121C1897.45 396.793 1897.44 399.466 1897.43 402.138C1897.42 404.657 1897.42 407.176 1897.42 409.695C1897.42 410.614 1897.42 411.532 1897.41 412.45C1897.33 423.676 1899.7 432.72 1907.43 441.205C1916.16 449.736 1928.66 449.778 1940.04 449.733C1940.78 449.732 1941.51 449.731 1942.25 449.731C1943.81 449.729 1945.37 449.726 1946.94 449.722C1949.42 449.715 1951.91 449.712 1954.39 449.71C1960.12 449.704 1965.85 449.693 1971.58 449.682C1976.83 449.672 1982.08 449.663 1987.32 449.658C1989.38 449.656 1991.44 449.653 1993.51 449.648C2008.22 449.608 2008.22 449.608 2015.04 449.842C2015.47 449.853 2015.9 449.864 2016.35 449.875C2021.27 450.087 2026.19 451.212 2029.89 454.642C2033.78 459.878 2033.97 466.22 2033.35 472.488C2032.59 476.561 2030.59 480.228 2027.41 482.899C2023.75 485.347 2019.65 486.026 2015.34 485.995C2014.74 485.997 2014.74 485.997 2014.13 485.999C2012.8 486.002 2011.47 485.998 2010.15 485.993C2009.19 485.994 2008.24 485.995 2007.28 485.996C2004.69 485.999 2002.1 485.995 1999.51 485.99C1996.79 485.985 1994.07 485.986 1991.35 485.986C1986.77 485.986 1982.2 485.982 1977.63 485.975C1972.36 485.967 1967.09 485.965 1961.83 485.965C1956.2 485.965 1950.57 485.962 1944.94 485.957C1943.33 485.956 1941.72 485.956 1940.11 485.956C1937.56 485.955 1935.01 485.952 1932.47 485.947C1931.54 485.946 1930.61 485.945 1929.69 485.945C1913.39 485.949 1913.39 485.949 1905.95 484.758C1905.55 484.693 1905.14 484.629 1904.72 484.563C1889.04 481.915 1875.33 472.464 1866.11 459.592C1860.41 451.299 1860.41 451.299 1859.41 446.751C1859.06 445.369 1858.61 444.214 1858.05 442.911C1856.94 440.214 1856.53 437.603 1856.21 434.72C1856.15 434.251 1856.09 433.783 1856.03 433.3C1855.93 432.426 1855.82 431.551 1855.72 430.676C1855.6 429.719 1855.46 428.765 1855.31 427.813C1855.04 425.71 1855 423.68 1855 421.564C1855 421.138 1855 420.713 1855 420.274C1855 418.847 1855 417.42 1855 415.993C1855 414.96 1855 413.927 1855 412.894C1855 410.053 1855 407.213 1855 404.373C1855.01 401.936 1855.01 399.5 1855.01 397.064C1855.01 389.035 1855.01 381.006 1855.02 372.977C1855.02 370.885 1855.02 368.792 1855.02 366.699C1855.03 353.692 1855.05 340.685 1855.06 327.678C1855.07 324.665 1855.07 321.652 1855.07 318.64C1855.08 318.266 1855.08 317.891 1855.08 317.506C1855.09 305.395 1855.1 293.283 1855.1 281.172C1855.09 268.705 1855.1 256.237 1855.12 243.77C1855.13 242.004 1855.13 240.238 1855.13 238.472C1855.13 238.125 1855.13 237.777 1855.13 237.419C1855.14 231.856 1855.14 226.293 1855.14 220.731C1855.13 215.123 1855.14 209.515 1855.16 203.907C1855.16 200.876 1855.17 197.845 1855.16 194.814C1855.13 182.446 1855.22 170.692 1858.53 158.692C1858.64 158.283 1858.75 157.874 1858.87 157.452C1861.63 147.463 1867.16 138.764 1874.38 131.427C1874.75 131.04 1875.13 130.653 1875.51 130.254C1889.18 117.027 1906.97 114.983 1925.01 115.004Z"
    fill="black"
  />
  <path
    d="M1509.32 157.486C1511.77 158.83 1513.66 160.427 1515.54 162.467C1516.51 163.475 1517.5 164.366 1518.57 165.273C1520.81 167.177 1522.9 169.204 1524.99 171.268C1525.35 171.618 1525.71 171.969 1526.08 172.33C1527.71 173.937 1529.3 175.552 1530.79 177.286C1532.45 179.181 1534.24 180.919 1536.06 182.663C1536.36 182.956 1536.66 183.248 1536.97 183.549C1538.24 184.768 1539.51 185.987 1540.79 187.196C1541.73 188.089 1542.66 188.99 1543.59 189.893C1544.02 190.292 1544.02 190.292 1544.46 190.7C1546.91 193.094 1548.42 195.815 1549 199.183C1548.95 203.28 1548.14 206.767 1545.61 210.091C1542.57 213.004 1539.4 214.288 1535.32 215.199C1534.85 215.311 1534.38 215.423 1533.89 215.538C1532.35 215.902 1530.82 216.257 1529.28 216.612C1527.11 217.123 1524.94 217.64 1522.78 218.16C1522.23 218.292 1521.68 218.423 1521.11 218.559C1517.45 219.448 1513.82 220.425 1510.2 221.479C1509.73 221.616 1509.26 221.753 1508.77 221.894C1506.54 222.544 1504.32 223.207 1502.1 223.887C1496.8 225.47 1490.69 227.216 1485.36 224.826C1484.78 224.475 1484.22 224.107 1483.67 223.719C1483.22 223.434 1482.78 223.15 1482.32 222.857C1479.39 220.05 1478.09 217.078 1478 213.076C1477.98 208.696 1479.06 204.745 1480.26 200.558C1480.48 199.772 1480.7 198.986 1480.92 198.2C1481.49 196.147 1482.07 194.098 1482.66 192.049C1483.24 189.985 1483.82 187.918 1484.39 185.851C1485.54 181.762 1486.69 177.674 1487.87 173.594C1488.08 172.859 1488.29 172.123 1488.5 171.388C1488.83 170.248 1489.16 169.11 1489.49 167.972C1489.59 167.627 1489.69 167.282 1489.79 166.927C1491.12 162.424 1493.13 159.779 1497.16 157.316C1500.94 155.333 1505.54 155.756 1509.32 157.486Z"
    fill="black"
  />
  <defs>
    <clipPath id="clip0_4_2">
      <rect
        width="587"
        height="587"
        fill="white"
        transform="translate(43 12)"
      />
    </clipPath>
  </defs>
</svg>
