<svg
  width="2007"
  height="512"
  viewBox="0 0 2007 512"
  fill="none"
  xmlns="http://www.w3.org/2000/svg"
>
  <path
    d="M244.562 24.625L247.917 24.5457C255.628 24.5298 260.996 25.6959 266.988 30.6407C272.049 36.7914 274.614 42.713 274.281 50.7734C273.392 57.8152 270.269 63.2894 265 68C257.828 72.6041 250.288 72.6546 242 72.9375C197.804 75.0735 156.392 91.5561 124 122L122.314 123.573C88.6798 155.262 68.1074 201.316 66.7148 247.484C65.9782 290.313 76.9246 332.975 104 367L105.275 368.612C121.888 389.452 141.458 405.527 165 418C165.706 418.375 166.412 418.75 167.139 419.136C202.731 437.701 245.783 442.945 285 435L287.492 434.496C313.011 429.123 336.538 418.636 357.596 403.29C364.351 398.439 370.153 396.299 378.512 397.402C385.588 399.102 391.03 404.033 395 410C398.137 416.458 398.352 423.96 396.078 430.754C392.155 438.127 385.873 442.544 379 447L376.949 448.333C327.041 480.414 265.756 494.698 207 483L204.015 482.414C151.307 471.699 102.229 442.538 69 400L66.6094 397.055C59.5547 388.203 53.6544 378.796 48 369L46.7847 366.907C29.7179 337.163 19.1027 301.503 18.7617 267.102L18.732 264.604C18.194 207.511 33.5114 154.649 70 110L71.5635 108.086C81.3523 96.2025 91.8548 85.5164 104 76L106.914 73.6406C120.781 62.6176 135.87 53.3211 152 46L154.233 44.9854C182.898 32.1232 213.137 25.0729 244.562 24.625Z"
    fill="#3F7ED5"
  />
  <path
    d="M320.25 131.625C325.01 134.253 327.296 137.888 329 143C329.373 148.256 328.678 151.534 326.25 156.187L325.306 157.998C321.677 164.824 317.641 171.417 313.625 178.019C309.279 185.168 305.017 192.366 300.75 199.562C299.933 200.94 299.116 202.317 298.299 203.694C296.665 206.448 295.032 209.201 293.398 211.956C291.457 215.229 289.515 218.503 287.573 221.776C286.136 224.197 284.7 226.618 283.264 229.04C282.289 230.684 281.314 232.327 280.339 233.971C279.147 235.981 277.961 237.994 276.779 240.01C275.524 242.12 274.235 244.211 272.924 246.287L270.922 249.516L269.081 252.415C267.721 254.892 267.721 254.892 268.649 257.105L270 259L271.258 260.865L272.695 262.809L274.34 265.04L276.125 267.438L277.992 269.961C281.981 275.335 286.025 280.666 290.097 285.978C293.414 290.307 296.712 294.65 300 299L301.858 301.451C303.57 303.725 305.257 306.015 306.938 308.312L308.46 310.321C312.16 315.461 313.604 319.909 312.652 326.355C310.314 332.35 307.244 335.071 301.688 338.375C296.45 339.593 291.847 338.995 287.121 336.449C283.201 333.373 280.475 329.906 277.5 325.938L275.664 323.533C270.84 317.189 266.113 310.772 261.408 304.34C256.235 297.277 250.935 290.315 245.592 283.38C229.679 262.641 229.679 262.641 230.137 256.018C231.505 249.376 234.425 244.188 237.938 238.437L239.796 235.324C241.139 233.075 242.488 230.829 243.842 228.585C246.075 224.882 248.282 221.163 250.484 217.441C253.67 212.06 256.861 206.683 260.059 201.309C263.754 195.098 267.443 188.884 271.129 182.667C273.125 179.3 275.123 175.935 277.124 172.571L279.461 168.644L280.612 166.709C282.851 162.944 285.077 159.17 287.289 155.388C288.328 153.615 289.37 151.844 290.415 150.074C291.683 147.925 292.943 145.77 294.194 143.612C299.287 135.014 299.287 135.014 304 132L305.813 130.75C310.901 129.005 315.437 129.47 320.25 131.625Z"
    fill="#818181"
  />
  <path
    d="M426.898 244.596C427.572 244.589 428.246 244.582 428.94 244.575C431.157 244.557 433.373 244.561 435.59 244.566C437.138 244.562 438.686 244.556 440.233 244.55C443.474 244.542 446.714 244.544 449.955 244.554C454.099 244.565 458.242 244.545 462.386 244.516C465.581 244.498 468.777 244.498 471.973 244.504C473.5 244.504 475.027 244.498 476.555 244.485C478.694 244.47 480.833 244.481 482.972 244.498L486.655 244.499C490.667 245.1 492.852 246.487 496 249C497.601 252.202 497.499 255.526 497 259C495.206 261.81 493.981 263.509 491 265C488.755 265.118 486.507 265.17 484.259 265.193L482.159 265.218C479.861 265.242 477.563 265.259 475.266 265.273L472.887 265.29C468.73 265.316 464.574 265.336 460.417 265.35C456.128 265.367 451.84 265.411 447.552 265.462C444.251 265.496 440.95 265.508 437.648 265.513C436.068 265.52 434.488 265.535 432.907 265.559C430.691 265.591 428.476 265.591 426.259 265.583L422.441 265.608C417.84 264.795 416.243 263.329 413 260C411.815 256.095 411.576 254.037 413.125 250.25C417.099 245.481 420.829 244.623 426.898 244.596ZM456.625 125.937C460.78 127.245 462.493 128.429 465 132C465.647 134.809 465.765 137.216 465 140C461.973 144.827 458.151 146.888 453.25 149.437C451.629 150.308 450.009 151.182 448.391 152.058L445.76 153.48C440.783 156.221 435.898 159.12 431 162C428.96 163.189 426.92 164.378 424.879 165.566C421.145 167.741 417.426 169.938 413.715 172.152C412.123 173.082 410.531 174.01 408.938 174.937L406.795 176.244C403.189 178.314 401.432 179.014 397.152 178.875C393.625 177.896 392.243 176.847 390 174C388.431 170.861 388.648 168.461 389 165C393.156 159.789 398.836 156.934 404.562 153.687L407.707 151.879C410.533 150.257 413.362 148.64 416.195 147.029C419.32 145.247 422.441 143.457 425.562 141.668C431.436 138.304 437.311 134.944 443.198 131.604C444.886 130.638 446.566 129.659 448.231 128.655C451.36 126.774 452.875 126.002 456.625 125.937ZM403 333C405.774 334.184 408.338 335.664 410.938 337.188L413.254 338.51C415.843 339.994 418.422 341.496 421 343C422.971 344.142 424.943 345.284 426.914 346.426C431.006 348.802 435.092 351.188 439.172 353.586C442.837 355.739 446.511 357.871 450.203 359.977L452.582 361.344C454.021 362.171 455.465 362.991 456.912 363.805C460.346 365.789 463.067 367.475 465 371C465.625 375.924 465.804 377.855 462.938 381.938C459.556 384.312 457.096 385.419 453 385C448.956 383.377 445.297 381.17 441.562 378.938L438.259 377.023C435.975 375.696 433.695 374.361 431.42 373.018C428.118 371.07 424.802 369.146 421.48 367.23C416.492 364.349 411.52 361.44 406.56 358.51C404.271 357.16 401.976 355.821 399.68 354.484C398.494 353.782 397.309 353.079 396.125 352.375L393.195 350.648C389.925 348.193 389.167 346.097 388.563 342.125C389.178 337.732 390.919 336.154 394 333C397.201 331.399 399.548 332.265 403 333ZM373 40C375.938 42.0625 375.938 42.0625 378 45C379.414 53.303 375.036 59.1067 370.875 66C370.146 67.2352 369.419 68.4712 368.694 69.7083C367.207 72.2383 365.711 74.7635 364.207 77.2837C362.118 80.7907 360.07 84.3191 358.031 87.8555C348.797 103.852 348.796 103.852 344.852 110.051C344.399 110.765 343.946 111.48 343.479 112.216C341.786 114.258 340.478 115.083 338 116C333.379 116 331.54 115.482 328.063 112.375C325.747 108.586 325.06 106.267 326 102C327.894 97.8323 330.25 93.9716 332.625 90.0625C333.651 88.3314 334.677 86.6 335.703 84.8683C336.761 83.0864 337.825 81.3087 338.891 79.5317C342.171 74.0541 345.359 68.5225 348.563 63C350.186 60.2109 351.813 57.4239 353.454 54.6445C354.508 52.8405 355.543 51.0253 356.558 49.1992L358.09 46.5L359.426 44.0937C363.223 39.0435 367.07 38.3058 373 40Z"
    fill="#3F7ED5"
  />
  <path
    d="M134 186C140.799 189.29 147.339 192.863 153.812 196.75C155.752 197.906 157.692 199.06 159.633 200.215L162.747 202.07C167.937 205.149 173.147 208.194 178.356 211.241C182.034 213.393 185.709 215.55 189.385 217.706C192.548 219.563 195.713 221.417 198.878 223.27C202.031 225.116 205.182 226.966 208.33 228.82C209.517 229.517 210.705 230.214 211.893 230.908C213.538 231.869 215.179 232.837 216.82 233.805L219.641 235.46C221.731 236.824 223.333 238.158 225 240L223 245C217.876 244.51 214.392 243.432 209.992 240.781L208.312 239.783C206.493 238.699 204.684 237.6 202.875 236.5C201.587 235.729 200.299 234.96 199.01 234.192C196.334 232.595 193.66 230.993 190.988 229.387C185.409 226.04 179.788 222.765 174.168 219.486C172.378 218.439 170.589 217.388 168.801 216.335C163.272 213.079 157.736 209.839 152.16 206.663C149.624 205.216 147.095 203.756 144.567 202.294C143.366 201.604 142.162 200.92 140.954 200.242C139.289 199.306 137.636 198.349 135.984 197.391L133.132 195.767C131 194 131 194 130.189 191.288L130 189L134 186Z"
    fill="#818181"
  />
  <path
    d="M605.8 247C605.8 229.667 608.733 212.733 614.6 196.2C620.733 179.4 629.533 164.2 641 150.6C652.467 136.733 666.6 125.8 683.4 117.8C700.2 109.533 719.267 105.4 740.6 105.4C765.933 105.4 787.533 111.267 805.4 123C823.533 134.467 836.867 149.267 845.4 167.4L823.4 181C817.267 168.467 809.533 158.6 800.2 151.4C790.867 143.933 780.867 138.6 770.2 135.4C759.8 132.2 749.4 130.6 739 130.6C721.933 130.6 706.867 134.067 693.8 141C680.733 147.667 669.667 156.733 660.6 168.2C651.8 179.4 645.133 192.067 640.6 206.2C636.067 220.067 633.8 234.2 633.8 248.6C633.8 264.333 636.467 279.4 641.8 293.8C647.133 308.2 654.6 321 664.2 332.2C673.8 343.133 685 351.933 697.8 358.6C710.867 365 725 368.2 740.2 368.2C750.867 368.2 761.8 366.333 773 362.6C784.2 358.867 794.6 353.133 804.2 345.4C814.067 337.667 821.933 327.667 827.8 315.4L851 327.4C845.133 341.533 836.067 353.533 823.8 363.4C811.533 373.267 797.8 380.733 782.6 385.8C767.667 390.867 753 393.4 738.6 393.4C719.133 393.4 701.267 389.267 685 381C668.733 372.467 654.6 361.267 642.6 347.4C630.867 333.267 621.8 317.533 615.4 300.2C609 282.6 605.8 264.867 605.8 247ZM981.219 206.6C963.085 207.133 947.085 212.2 933.219 221.8C919.619 231.4 910.019 244.6 904.419 261.4V391H877.219V182.6H902.819V232.6C910.019 217.933 919.485 206.067 931.219 197C943.219 187.933 955.885 182.867 969.219 181.8C971.885 181.533 974.152 181.4 976.019 181.4C978.152 181.4 979.885 181.533 981.219 181.8V206.6ZM1083.61 395C1068.68 395 1054.81 392.2 1042.01 386.6C1029.48 380.733 1018.55 372.867 1009.21 363C1000.15 352.867 993.079 341.4 988.013 328.6C982.946 315.533 980.413 301.8 980.413 287.4C980.413 272.467 982.946 258.6 988.013 245.8C993.079 232.733 1000.28 221.267 1009.61 211.4C1018.95 201.267 1029.88 193.4 1042.41 187.8C1055.21 181.933 1069.08 179 1084.01 179C1098.95 179 1112.68 181.933 1125.21 187.8C1137.75 193.4 1148.68 201.267 1158.01 211.4C1167.35 221.267 1174.55 232.733 1179.61 245.8C1184.68 258.6 1187.21 272.467 1187.21 287.4C1187.21 301.8 1184.68 315.533 1179.61 328.6C1174.55 341.4 1167.35 352.867 1158.01 363C1148.95 372.867 1138.01 380.733 1125.21 386.6C1112.68 392.2 1098.81 395 1083.61 395ZM1008.01 287.8C1008.01 303.267 1011.35 317.4 1018.01 330.2C1024.95 342.733 1034.15 352.733 1045.61 360.2C1057.08 367.4 1069.75 371 1083.61 371C1097.48 371 1110.15 367.267 1121.61 359.8C1133.08 352.333 1142.28 342.2 1149.21 329.4C1156.15 316.333 1159.61 302.2 1159.61 287C1159.61 271.533 1156.15 257.4 1149.21 244.6C1142.28 231.8 1133.08 221.667 1121.61 214.2C1110.15 206.733 1097.48 203 1083.61 203C1069.75 203 1057.08 206.867 1045.61 214.6C1034.41 222.333 1025.35 232.6 1018.41 245.4C1011.48 257.933 1008.01 272.067 1008.01 287.8ZM1391.9 391H1364.7V274.6C1364.7 250.067 1361.1 232.2 1353.9 221C1346.7 209.533 1335.37 203.8 1319.9 203.8C1309.24 203.8 1298.7 206.467 1288.3 211.8C1277.9 216.867 1268.7 223.933 1260.7 233C1252.97 241.8 1247.37 251.933 1243.9 263.4V391H1216.7V182.6H1241.5V229.8C1247.1 219.667 1254.44 210.867 1263.5 203.4C1272.57 195.667 1282.84 189.667 1294.3 185.4C1305.77 181.133 1317.64 179 1329.9 179C1341.37 179 1351.1 181.133 1359.1 185.4C1367.1 189.667 1373.5 195.8 1378.3 203.8C1383.1 211.533 1386.57 221 1388.7 232.2C1390.84 243.133 1391.9 255.4 1391.9 269V391ZM1433.91 391V182.6H1461.11V391H1433.91ZM1433.91 139V99H1461.11V139H1433.91ZM1595.42 395C1580.22 395 1566.22 392.2 1553.42 386.6C1540.88 380.733 1529.82 372.733 1520.22 362.6C1510.88 352.467 1503.55 340.867 1498.22 327.8C1493.15 314.733 1490.62 300.867 1490.62 286.2C1490.62 266.467 1495.02 248.467 1503.82 232.2C1512.62 215.933 1524.88 203 1540.62 193.4C1556.35 183.8 1574.48 179 1595.02 179C1614.48 179 1631.68 183.533 1646.62 192.6C1661.55 201.4 1672.62 213.4 1679.82 228.6L1653.42 237C1647.55 226.333 1639.28 218.067 1628.62 212.2C1618.22 206.067 1606.62 203 1593.82 203C1579.95 203 1567.28 206.6 1555.82 213.8C1544.35 221 1535.15 230.867 1528.22 243.4C1521.55 255.933 1518.22 270.2 1518.22 286.2C1518.22 301.933 1521.68 316.2 1528.62 329C1535.55 341.8 1544.75 352.067 1556.22 359.8C1567.68 367.267 1580.35 371 1594.22 371C1603.28 371 1611.95 369.4 1620.22 366.2C1628.75 363 1636.08 358.733 1642.22 353.4C1648.62 347.8 1652.88 341.8 1655.02 335.4L1681.82 343.4C1678.08 353.267 1671.82 362.2 1663.02 370.2C1654.48 377.933 1644.35 384.067 1632.62 388.6C1621.15 392.867 1608.75 395 1595.42 395ZM1709.75 99H1736.95V343.8C1736.95 354.2 1738.81 361 1742.55 364.2C1746.28 367.4 1750.81 369 1756.15 369C1760.95 369 1765.75 368.467 1770.55 367.4C1775.35 366.333 1779.48 365.267 1782.95 364.2L1787.75 386.2C1782.68 388.333 1776.41 390.067 1768.95 391.4C1761.75 392.733 1755.48 393.4 1750.15 393.4C1737.88 393.4 1728.01 389.8 1720.55 382.6C1713.35 375.4 1709.75 365.533 1709.75 353V99ZM1891.53 395C1876.6 395 1862.73 392.2 1849.93 386.6C1837.13 380.733 1826.06 372.867 1816.73 363C1807.4 352.867 1800.06 341.267 1794.73 328.2C1789.66 315.133 1787.13 301.133 1787.13 286.2C1787.13 266.733 1791.53 248.867 1800.33 232.6C1809.4 216.333 1821.8 203.4 1837.53 193.8C1853.26 183.933 1871.13 179 1891.13 179C1911.66 179 1929.53 183.933 1944.73 193.8C1960.2 203.667 1972.33 216.733 1981.13 233C1989.93 249 1994.33 266.6 1994.33 285.8C1994.33 287.933 1994.33 290.067 1994.33 292.2C1994.33 294.067 1994.2 295.533 1993.93 296.6H1815.53C1816.86 311.533 1821 324.867 1827.93 336.6C1835.13 348.067 1844.33 357.267 1855.53 364.2C1867 370.867 1879.4 374.2 1892.73 374.2C1906.33 374.2 1919.13 370.733 1931.13 363.8C1943.4 356.867 1951.93 347.8 1956.73 336.6L1980.33 343C1976.06 352.867 1969.53 361.8 1960.73 369.8C1951.93 377.8 1941.53 384.067 1929.53 388.6C1917.8 392.867 1905.13 395 1891.53 395ZM1814.73 277H1968.73C1967.66 261.8 1963.53 248.467 1956.33 237C1949.4 225.533 1940.2 216.6 1928.73 210.2C1917.53 203.533 1905.13 200.2 1891.53 200.2C1877.93 200.2 1865.53 203.533 1854.33 210.2C1843.13 216.6 1833.93 225.667 1826.73 237.4C1819.8 248.867 1815.8 262.067 1814.73 277Z"
    fill="black"
  />
</svg>
