<svg
  width="1240"
  height="702"
  viewBox="0 0 1240 702"
  fill="none"
  xmlns="http://www.w3.org/2000/svg"
>
  <g opacity="0.8" clip-path="url(#clip0_1_2)">
    <mask
      id="mask0_1_2"
      style="mask-type: luminance"
      maskUnits="userSpaceOnUse"
      x="379"
      y="7"
      width="896"
      height="896"
    >
      <path d="M1274.22 902.04H379.29V7.55994H1274.22V902.04Z" fill="white" />
    </mask>
    <g mask="url(#mask0_1_2)">
      <mask id="path-2-inside-1_1_2" fill="white">
        <path
          d="M1107.21 581.279L1034.62 623.171V706.715C1034.62 706.942 1034.81 707.121 1035.03 707.121C1035.25 707.121 1035.43 706.936 1035.43 706.715V623.642L1107.21 582.222L1178.99 623.642V706.715C1178.99 706.942 1179.18 707.121 1179.4 707.121C1179.62 707.121 1179.8 706.936 1179.8 706.715V623.171L1107.21 581.279Z"
        />
      </mask>
      <path
        d="M1107.21 581.279L1034.62 623.171V706.715C1034.62 706.942 1034.81 707.121 1035.03 707.121C1035.25 707.121 1035.43 706.936 1035.43 706.715V623.642L1107.21 582.222L1178.99 623.642V706.715C1178.99 706.942 1179.18 707.121 1179.4 707.121C1179.62 707.121 1179.8 706.936 1179.8 706.715V623.171L1107.21 581.279Z"
        stroke="#AAAAAA"
        stroke-width="2"
        stroke-dasharray="2 2"
        mask="url(#path-2-inside-1_1_2)"
      />
      <mask id="path-3-inside-2_1_2" fill="white">
        <path
          d="M1079.21 134.218L1006.83 175.991C1006.63 176.104 1006.56 176.354 1006.68 176.545C1006.79 176.742 1007.04 176.808 1007.23 176.694L1079.21 135.161L1151.2 176.694C1151.39 176.808 1151.64 176.742 1151.75 176.545C1151.86 176.348 1151.8 176.104 1151.6 175.991L1079.21 134.218Z"
        />
      </mask>
      <path
        d="M1079.21 134.218L1006.83 175.991C1006.63 176.104 1006.56 176.354 1006.68 176.545C1006.79 176.742 1007.04 176.808 1007.23 176.694L1079.21 135.161L1151.2 176.694C1151.39 176.808 1151.64 176.742 1151.75 176.545C1151.86 176.348 1151.8 176.104 1151.6 175.991L1079.21 134.218Z"
        stroke="#AAAAAA"
        stroke-width="2"
        stroke-dasharray="2 2"
        mask="url(#path-3-inside-2_1_2)"
      />
      <mask id="path-4-inside-3_1_2" fill="white">
        <path
          d="M933.453 210.261L861.065 252.033C860.868 252.147 860.803 252.397 860.916 252.588C861.029 252.785 861.28 252.85 861.471 252.737L933.453 211.203L1005.43 252.737C1005.63 252.85 1005.88 252.785 1005.99 252.588C1006.1 252.391 1006.04 252.147 1005.84 252.033L933.453 210.261Z"
        />
      </mask>
      <path
        d="M933.453 210.261L861.065 252.033C860.868 252.147 860.803 252.397 860.916 252.588C861.029 252.785 861.28 252.85 861.471 252.737L933.453 211.203L1005.43 252.737C1005.63 252.85 1005.88 252.785 1005.99 252.588C1006.1 252.391 1006.04 252.147 1005.84 252.033L933.453 210.261Z"
        stroke="#AAAAAA"
        stroke-width="2"
        stroke-dasharray="2 2"
        mask="url(#path-4-inside-3_1_2)"
      />
      <mask id="path-5-inside-4_1_2" fill="white">
        <path
          d="M423.332 196.755L350.945 238.527C350.748 238.64 350.682 238.89 350.796 239.081C350.909 239.278 351.159 239.344 351.35 239.23L423.332 197.697L495.314 239.23C495.511 239.344 495.756 239.278 495.869 239.081C495.983 238.885 495.917 238.64 495.72 238.527L423.332 196.755Z"
        />
      </mask>
      <path
        d="M423.332 196.755L350.945 238.527C350.748 238.64 350.682 238.89 350.796 239.081C350.909 239.278 351.159 239.344 351.35 239.23L423.332 197.697L495.314 239.23C495.511 239.344 495.756 239.278 495.869 239.081C495.983 238.885 495.917 238.64 495.72 238.527L423.332 196.755Z"
        stroke="#AAAAAA"
        stroke-width="2"
        stroke-dasharray="2 2"
        mask="url(#path-5-inside-4_1_2)"
      />
      <mask id="path-6-inside-5_1_2" fill="white">
        <path
          d="M1107.21 339.448L1034.82 381.22C1034.63 381.333 1034.56 381.584 1034.68 381.775C1034.79 381.971 1035.04 382.037 1035.23 381.924L1107.21 340.384L1179.19 381.924C1179.39 382.037 1179.64 381.971 1179.75 381.775C1179.86 381.578 1179.8 381.333 1179.6 381.22L1107.21 339.448Z"
        />
      </mask>
      <path
        d="M1107.21 339.448L1034.82 381.22C1034.63 381.333 1034.56 381.584 1034.68 381.775C1034.79 381.971 1035.04 382.037 1035.23 381.924L1107.21 340.384L1179.19 381.924C1179.39 382.037 1179.64 381.971 1179.75 381.775C1179.86 381.578 1179.8 381.333 1179.6 381.22L1107.21 339.448Z"
        stroke="#AAAAAA"
        stroke-width="2"
        stroke-dasharray="2 2"
        mask="url(#path-6-inside-5_1_2)"
      />
      <mask id="path-7-inside-6_1_2" fill="white">
        <path
          d="M998.007 569.949C997.781 569.949 997.602 570.134 997.602 570.355V653.428L925.62 694.968C925.423 695.081 925.357 695.332 925.471 695.523C925.584 695.719 925.835 695.785 926.025 695.672L998.413 653.899V570.355C998.413 570.128 998.228 569.949 998.007 569.949Z"
        />
      </mask>
      <path
        d="M998.007 569.949C997.781 569.949 997.602 570.134 997.602 570.355V653.428L925.62 694.968C925.423 695.081 925.357 695.332 925.471 695.523C925.584 695.719 925.835 695.785 926.025 695.672L998.413 653.899V570.355C998.413 570.128 998.228 569.949 998.007 569.949Z"
        stroke="#AAAAAA"
        stroke-width="2"
        stroke-dasharray="2 2"
        mask="url(#path-7-inside-6_1_2)"
      />
      <mask id="path-8-inside-7_1_2" fill="white">
        <path
          d="M998.007 444.985C997.781 444.985 997.602 445.169 997.602 445.39V528.935L1069.99 570.707C1070.19 570.82 1070.43 570.754 1070.54 570.558C1070.66 570.361 1070.59 570.116 1070.39 570.003L998.413 528.463V445.39C998.413 445.163 998.228 444.985 998.007 444.985Z"
        />
      </mask>
      <path
        d="M998.007 444.985C997.781 444.985 997.602 445.169 997.602 445.39V528.935L1069.99 570.707C1070.19 570.82 1070.43 570.754 1070.54 570.558C1070.66 570.361 1070.59 570.116 1070.39 570.003L998.413 528.463V445.39C998.413 445.163 998.228 444.985 998.007 444.985Z"
        stroke="#AAAAAA"
        stroke-width="2"
        stroke-dasharray="2 2"
        mask="url(#path-8-inside-7_1_2)"
      />
      <mask id="path-9-inside-8_1_2" fill="white">
        <path
          d="M1216.41 444.985C1216.19 444.985 1216.01 445.169 1216.01 445.39V528.463L1144.02 570.003C1143.83 570.116 1143.76 570.367 1143.87 570.558C1143.99 570.754 1144.24 570.82 1144.43 570.707L1216.82 528.935V445.39C1216.82 445.163 1216.63 444.985 1216.41 444.985Z"
        />
      </mask>
      <path
        d="M1216.41 444.985C1216.19 444.985 1216.01 445.169 1216.01 445.39V528.463L1144.02 570.003C1143.83 570.116 1143.76 570.367 1143.87 570.558C1143.99 570.754 1144.24 570.82 1144.43 570.707L1216.82 528.935V445.39C1216.82 445.163 1216.63 444.985 1216.41 444.985Z"
        stroke="#AAAAAA"
        stroke-width="2"
        stroke-dasharray="2 2"
        mask="url(#path-9-inside-8_1_2)"
      />
      <mask id="path-10-inside-9_1_2" fill="white">
        <path
          d="M892.555 51.4371C892.328 51.4371 892.149 51.622 892.149 51.8427V134.916L820.37 176.336L748.388 134.797C748.191 134.683 747.947 134.749 747.833 134.946C747.72 135.143 747.786 135.387 747.983 135.5L820.37 177.273L892.961 135.381V51.8367C892.961 51.6101 892.776 51.4312 892.555 51.4312V51.4371Z"
        />
      </mask>
      <path
        d="M892.555 51.4371C892.328 51.4371 892.149 51.622 892.149 51.8427V134.916L820.37 176.336L748.388 134.797C748.191 134.683 747.947 134.749 747.833 134.946C747.72 135.143 747.786 135.387 747.983 135.5L820.37 177.273L892.961 135.381V51.8367C892.961 51.6101 892.776 51.4312 892.555 51.4312V51.4371Z"
        stroke="#AAAAAA"
        stroke-width="2"
        stroke-dasharray="2 2"
        mask="url(#path-10-inside-9_1_2)"
      />
      <mask id="path-11-inside-10_1_2" fill="white">
        <path
          d="M748.245 180.171L675.857 221.943C675.66 222.056 675.595 222.307 675.708 222.498C675.821 222.694 676.072 222.76 676.263 222.647L748.245 181.107L820.024 222.527V305.601C820.024 305.827 820.209 306.006 820.43 306.006C820.651 306.006 820.835 305.821 820.835 305.601V222.056L748.245 180.165V180.171Z"
        />
      </mask>
      <path
        d="M748.245 180.171L675.857 221.943C675.66 222.056 675.595 222.307 675.708 222.498C675.821 222.694 676.072 222.76 676.263 222.647L748.245 181.107L820.024 222.527V305.601C820.024 305.827 820.209 306.006 820.43 306.006C820.651 306.006 820.835 305.821 820.835 305.601V222.056L748.245 180.165V180.171Z"
        stroke="#AAAAAA"
        stroke-width="2"
        stroke-dasharray="2 2"
        mask="url(#path-11-inside-10_1_2)"
      />
      <mask id="path-12-inside-11_1_2" fill="white">
        <path
          d="M351.154 36.0043L278.766 77.7766C278.569 77.8899 278.503 78.1403 278.617 78.3311C278.73 78.5279 278.981 78.5935 279.171 78.4802L351.154 36.9465L422.933 78.3669V161.44C422.933 161.667 423.118 161.846 423.338 161.846C423.559 161.846 423.744 161.661 423.744 161.44V77.8958L351.154 36.0043Z"
        />
      </mask>
      <path
        d="M351.154 36.0043L278.766 77.7766C278.569 77.8899 278.503 78.1403 278.617 78.3311C278.73 78.5279 278.981 78.5935 279.171 78.4802L351.154 36.9465L422.933 78.3669V161.44C422.933 161.667 423.118 161.846 423.338 161.846C423.559 161.846 423.744 161.661 423.744 161.44V77.8958L351.154 36.0043Z"
        stroke="#AAAAAA"
        stroke-width="2"
        stroke-dasharray="2 2"
        mask="url(#path-12-inside-11_1_2)"
      />
      <mask id="path-13-inside-12_1_2" fill="white">
        <path
          d="M1077.49 654.889C1077.26 654.889 1077.08 655.074 1077.08 655.295V738.368L1005.3 779.789L933.322 738.249C933.125 738.136 932.88 738.201 932.767 738.398C932.654 738.595 932.719 738.839 932.916 738.953L1005.3 780.725L1077.89 738.833V655.289C1077.89 655.062 1077.71 654.883 1077.49 654.883V654.889Z"
        />
      </mask>
      <path
        d="M1077.49 654.889C1077.26 654.889 1077.08 655.074 1077.08 655.295V738.368L1005.3 779.789L933.322 738.249C933.125 738.136 932.88 738.201 932.767 738.398C932.654 738.595 932.719 738.839 932.916 738.953L1005.3 780.725L1077.89 738.833V655.289C1077.89 655.062 1077.71 654.883 1077.49 654.883V654.889Z"
        stroke="#AAAAAA"
        stroke-width="2"
        stroke-dasharray="2 2"
        mask="url(#path-13-inside-12_1_2)"
      />
      <mask id="path-14-inside-13_1_2" fill="white">
        <path
          d="M885.384 443.571L812.996 485.343C812.799 485.457 812.733 485.707 812.847 485.898C812.96 486.095 813.205 486.16 813.402 486.047L885.384 444.507L957.157 485.928V569.001C957.157 569.228 957.342 569.407 957.563 569.407C957.783 569.407 957.968 569.222 957.968 569.001V485.457L885.378 443.565L885.384 443.571Z"
        />
      </mask>
      <path
        d="M885.384 443.571L812.996 485.343C812.799 485.457 812.733 485.707 812.847 485.898C812.96 486.095 813.205 486.16 813.402 486.047L885.384 444.507L957.157 485.928V569.001C957.157 569.228 957.342 569.407 957.563 569.407C957.783 569.407 957.968 569.222 957.968 569.001V485.457L885.378 443.565L885.384 443.571Z"
        stroke="#AAAAAA"
        stroke-width="2"
        stroke-dasharray="2 2"
        mask="url(#path-14-inside-13_1_2)"
      />
      <mask id="path-15-inside-14_1_2" fill="white">
        <path
          d="M1289.53 340.199L1217.14 381.971C1216.94 382.085 1216.88 382.335 1216.99 382.526C1217.1 382.723 1217.35 382.788 1217.55 382.675L1289.53 341.141L1361.31 382.562V465.635C1361.31 465.862 1361.49 466.041 1361.71 466.041C1361.93 466.041 1362.12 465.856 1362.12 465.635V382.091L1289.53 340.199Z"
        />
      </mask>
      <path
        d="M1289.53 340.199L1217.14 381.971C1216.94 382.085 1216.88 382.335 1216.99 382.526C1217.1 382.723 1217.35 382.788 1217.55 382.675L1289.53 341.141L1361.31 382.562V465.635C1361.31 465.862 1361.49 466.041 1361.71 466.041C1361.93 466.041 1362.12 465.856 1362.12 465.635V382.091L1289.53 340.199Z"
        stroke="#AAAAAA"
        stroke-width="2"
        stroke-dasharray="2 2"
        mask="url(#path-15-inside-14_1_2)"
      />
      <mask id="path-16-inside-15_1_2" fill="white">
        <path
          d="M496.561 -11.0454C496.335 -11.0454 496.156 -10.8605 496.156 -10.6399V72.9046L568.746 114.796L641.134 73.0239C641.331 72.9106 641.396 72.6601 641.283 72.4693C641.17 72.2725 640.919 72.2069 640.728 72.3202L568.746 113.854L496.967 72.4335V-10.6399C496.967 -10.8665 496.782 -11.0454 496.561 -11.0454Z"
        />
      </mask>
      <path
        d="M496.561 -11.0454C496.335 -11.0454 496.156 -10.8605 496.156 -10.6399V72.9046L568.746 114.796L641.134 73.0239C641.331 72.9106 641.396 72.6601 641.283 72.4693C641.17 72.2725 640.919 72.2069 640.728 72.3202L568.746 113.854L496.967 72.4335V-10.6399C496.967 -10.8665 496.782 -11.0454 496.561 -11.0454Z"
        stroke="#AAAAAA"
        stroke-width="2"
        stroke-dasharray="2 2"
        mask="url(#path-16-inside-15_1_2)"
      />
      <mask id="path-17-inside-16_1_2" fill="white">
        <path
          d="M1107.21 380.785L1033.69 423.207V508.057L1107.21 550.479L1180.73 508.057V423.207L1107.21 380.785ZM1034.5 423.678L1107.21 381.721L1179.91 423.678V507.586L1107.21 549.543L1034.5 507.586V423.678Z"
        />
      </mask>
      <path
        d="M1107.21 380.785L1033.69 423.207V508.057L1107.21 550.479L1180.73 508.057V423.207L1107.21 380.785ZM1034.5 423.678L1107.21 381.721L1179.91 423.678V507.586L1107.21 549.543L1034.5 507.586V423.678Z"
        stroke="#AAAAAA"
        stroke-width="2"
        stroke-dasharray="2 2"
        mask="url(#path-17-inside-16_1_2)"
      />
      <mask id="path-18-inside-17_1_2" fill="white">
        <path
          d="M1189.47 -55.8827L1115.95 -13.4604V71.3899L1189.47 113.812L1263 71.3899V-13.4604L1189.47 -55.8827ZM1116.77 -12.9894L1189.47 -54.9465L1262.18 -12.9894V70.9189L1189.47 112.876L1116.77 70.9189V-12.9894Z"
        />
      </mask>
      <path
        d="M1189.47 -55.8827L1115.95 -13.4604V71.3899L1189.47 113.812L1263 71.3899V-13.4604L1189.47 -55.8827ZM1116.77 -12.9894L1189.47 -54.9465L1262.18 -12.9894V70.9189L1189.47 112.876L1116.77 70.9189V-12.9894Z"
        stroke="#AAAAAA"
        stroke-width="2"
        stroke-dasharray="2 2"
        mask="url(#path-18-inside-17_1_2)"
      />
      <mask id="path-19-inside-18_1_2" fill="white">
        <path
          d="M1006.56 45.617C1006.49 45.617 1006.43 45.6349 1006.36 45.6707L933.047 87.9796V172.83L1006.57 215.252L1079.88 172.943C1080.08 172.83 1080.14 172.58 1080.03 172.389C1079.92 172.192 1079.67 172.126 1079.48 172.24L1006.57 214.31L933.865 172.353V88.4448L1006.77 46.3744C1006.97 46.2611 1007.03 46.0106 1006.92 45.8198C1006.84 45.6886 1006.71 45.617 1006.57 45.617H1006.56Z"
        />
      </mask>
      <path
        d="M1006.56 45.617C1006.49 45.617 1006.43 45.6349 1006.36 45.6707L933.047 87.9796V172.83L1006.57 215.252L1079.88 172.943C1080.08 172.83 1080.14 172.58 1080.03 172.389C1079.92 172.192 1079.67 172.126 1079.48 172.24L1006.57 214.31L933.865 172.353V88.4448L1006.77 46.3744C1006.97 46.2611 1007.03 46.0106 1006.92 45.8198C1006.84 45.6886 1006.71 45.617 1006.57 45.617H1006.56Z"
        stroke="#AAAAAA"
        stroke-width="2"
        stroke-dasharray="2 2"
        mask="url(#path-19-inside-18_1_2)"
      />
      <mask id="path-20-inside-19_1_2" fill="white">
        <path
          d="M641.856 22.0743L568.543 64.3832C568.346 64.4965 568.281 64.7469 568.394 64.9378C568.508 65.1346 568.752 65.2001 568.949 65.0869L641.856 23.0164L714.56 64.9736V148.882L641.653 190.952C641.456 191.065 641.39 191.316 641.504 191.507C641.617 191.704 641.868 191.769 642.059 191.656L715.371 149.347V64.4965L641.85 22.0743H641.856Z"
        />
      </mask>
      <path
        d="M641.856 22.0743L568.543 64.3832C568.346 64.4965 568.281 64.7469 568.394 64.9378C568.508 65.1346 568.752 65.2001 568.949 65.0869L641.856 23.0164L714.56 64.9736V148.882L641.653 190.952C641.456 191.065 641.39 191.316 641.504 191.507C641.617 191.704 641.868 191.769 642.059 191.656L715.371 149.347V64.4965L641.85 22.0743H641.856Z"
        stroke="#AAAAAA"
        stroke-width="2"
        stroke-dasharray="2 2"
        mask="url(#path-20-inside-19_1_2)"
      />
      <mask id="path-21-inside-20_1_2" fill="white">
        <path
          d="M1152.92 -32.9423C1152.85 -32.9423 1152.78 -32.9244 1152.72 -32.8886L1079.4 9.42033V94.2707L1152.72 136.58C1152.91 136.693 1153.16 136.627 1153.27 136.431C1153.38 136.234 1153.32 135.989 1153.12 135.876L1080.22 93.8056V9.89734L1153.12 -32.173C1153.32 -32.2863 1153.38 -32.5368 1153.27 -32.7276C1153.19 -32.8588 1153.06 -32.9303 1152.92 -32.9303V-32.9423Z"
        />
      </mask>
      <path
        d="M1152.92 -32.9423C1152.85 -32.9423 1152.78 -32.9244 1152.72 -32.8886L1079.4 9.42033V94.2707L1152.72 136.58C1152.91 136.693 1153.16 136.627 1153.27 136.431C1153.38 136.234 1153.32 135.989 1153.12 135.876L1080.22 93.8056V9.89734L1153.12 -32.173C1153.32 -32.2863 1153.38 -32.5368 1153.27 -32.7276C1153.19 -32.8588 1153.06 -32.9303 1152.92 -32.9303V-32.9423Z"
        stroke="#AAAAAA"
        stroke-width="2"
        stroke-dasharray="2 2"
        mask="url(#path-21-inside-20_1_2)"
      />
      <mask id="path-22-inside-21_1_2" fill="white">
        <path
          d="M821.301 -38.7622C821.229 -38.7622 821.164 -38.7444 821.098 -38.7086L747.785 3.60038V88.4508L821.098 130.76C821.295 130.873 821.539 130.807 821.653 130.611C821.766 130.414 821.7 130.169 821.504 130.056L748.597 87.9857V4.07739L821.504 -37.9929C821.7 -38.1062 821.766 -38.3567 821.653 -38.5475C821.575 -38.6787 821.438 -38.7503 821.301 -38.7503V-38.7622Z"
        />
      </mask>
      <path
        d="M821.301 -38.7622C821.229 -38.7622 821.164 -38.7444 821.098 -38.7086L747.785 3.60038V88.4508L821.098 130.76C821.295 130.873 821.539 130.807 821.653 130.611C821.766 130.414 821.7 130.169 821.504 130.056L748.597 87.9857V4.07739L821.504 -37.9929C821.7 -38.1062 821.766 -38.3567 821.653 -38.5475C821.575 -38.6787 821.438 -38.7503 821.301 -38.7503V-38.7622Z"
        stroke="#AAAAAA"
        stroke-width="2"
        stroke-dasharray="2 2"
        mask="url(#path-22-inside-21_1_2)"
      />
      <mask id="path-23-inside-22_1_2" fill="white">
        <path
          d="M933.453 251.974C933.31 251.974 933.179 252.045 933.101 252.176C932.988 252.373 933.053 252.618 933.25 252.731L1006.16 294.801V378.71L933.25 420.78C933.053 420.893 932.988 421.144 933.101 421.334C933.214 421.531 933.465 421.597 933.656 421.484L1006.97 379.175V294.324L933.656 252.015C933.59 251.98 933.525 251.962 933.453 251.962V251.974Z"
        />
      </mask>
      <path
        d="M933.453 251.974C933.31 251.974 933.179 252.045 933.101 252.176C932.988 252.373 933.053 252.618 933.25 252.731L1006.16 294.801V378.71L933.25 420.78C933.053 420.893 932.988 421.144 933.101 421.334C933.214 421.531 933.465 421.597 933.656 421.484L1006.97 379.175V294.324L933.656 252.015C933.59 251.98 933.525 251.962 933.453 251.962V251.974Z"
        stroke="#AAAAAA"
        stroke-width="2"
        stroke-dasharray="2 2"
        mask="url(#path-23-inside-22_1_2)"
      />
      <mask id="path-24-inside-23_1_2" fill="white">
        <path
          d="M1289.53 581.339C1289.46 581.339 1289.39 581.357 1289.32 581.393L1216.01 623.702V708.552L1289.32 750.861C1289.52 750.974 1289.77 750.909 1289.88 750.712C1289.99 750.515 1289.93 750.271 1289.73 750.157L1216.82 708.087V624.179L1289.73 582.108C1289.93 581.995 1289.99 581.745 1289.88 581.554C1289.8 581.423 1289.66 581.351 1289.53 581.351V581.339Z"
        />
      </mask>
      <path
        d="M1289.53 581.339C1289.46 581.339 1289.39 581.357 1289.32 581.393L1216.01 623.702V708.552L1289.32 750.861C1289.52 750.974 1289.77 750.909 1289.88 750.712C1289.99 750.515 1289.93 750.271 1289.73 750.157L1216.82 708.087V624.179L1289.73 582.108C1289.93 581.995 1289.99 581.745 1289.88 581.554C1289.8 581.423 1289.66 581.351 1289.53 581.351V581.339Z"
        stroke="#AAAAAA"
        stroke-width="2"
        stroke-dasharray="2 2"
        mask="url(#path-24-inside-23_1_2)"
      />
      <mask id="path-25-inside-24_1_2" fill="white">
        <path
          d="M1180.32 167.594C1180.18 167.594 1180.05 167.666 1179.97 167.797C1179.86 167.994 1179.92 168.238 1180.12 168.352L1253.03 210.422V294.33L1180.32 336.287L1107.42 294.217C1107.22 294.104 1106.97 294.169 1106.86 294.366C1106.75 294.563 1106.81 294.807 1107.01 294.921L1180.32 337.229L1253.84 294.807V209.957L1180.53 167.648C1180.47 167.612 1180.4 167.594 1180.33 167.594H1180.32Z"
        />
      </mask>
      <path
        d="M1180.32 167.594C1180.18 167.594 1180.05 167.666 1179.97 167.797C1179.86 167.994 1179.92 168.238 1180.12 168.352L1253.03 210.422V294.33L1180.32 336.287L1107.42 294.217C1107.22 294.104 1106.97 294.169 1106.86 294.366C1106.75 294.563 1106.81 294.807 1107.01 294.921L1180.32 337.229L1253.84 294.807V209.957L1180.53 167.648C1180.47 167.612 1180.4 167.594 1180.33 167.594H1180.32Z"
        stroke="#AAAAAA"
        stroke-width="2"
        stroke-dasharray="2 2"
        mask="url(#path-25-inside-24_1_2)"
      />
      <mask id="path-26-inside-25_1_2" fill="white">
        <path
          d="M496.448 113.8C496.305 113.8 496.174 113.872 496.096 114.003C495.983 114.2 496.048 114.444 496.245 114.558L569.152 156.628V240.536L496.448 282.493L423.541 240.423C423.344 240.31 423.1 240.375 422.986 240.572C422.873 240.769 422.939 241.013 423.136 241.127L496.448 283.436L569.969 241.013V156.163L496.657 113.854C496.591 113.818 496.526 113.8 496.454 113.8H496.448Z"
        />
      </mask>
      <path
        d="M496.448 113.8C496.305 113.8 496.174 113.872 496.096 114.003C495.983 114.2 496.048 114.444 496.245 114.558L569.152 156.628V240.536L496.448 282.493L423.541 240.423C423.344 240.31 423.1 240.375 422.986 240.572C422.873 240.769 422.939 241.013 423.136 241.127L496.448 283.436L569.969 241.013V156.163L496.657 113.854C496.591 113.818 496.526 113.8 496.454 113.8H496.448Z"
        stroke="#AAAAAA"
        stroke-width="2"
        stroke-dasharray="2 2"
        mask="url(#path-26-inside-25_1_2)"
      />
    </g>
    <path
      d="M821.102 483.755C822.135 488.127 819.426 492.508 815.051 493.54C810.677 494.572 806.294 491.864 805.262 487.492C804.229 483.12 806.938 478.739 811.313 477.707C815.687 476.675 820.07 479.383 821.102 483.755Z"
      fill="#AAAAAA"
    />
    <path
      d="M1005.9 653.448C1006.93 657.821 1004.22 662.201 999.849 663.233C995.475 664.265 991.092 661.557 990.06 657.185C989.027 652.813 991.736 648.432 996.111 647.401C1000.48 646.369 1004.87 649.076 1005.9 653.448Z"
      fill="#AAAAAA"
    />
    <path
      d="M1222.16 375.994C1225.34 379.17 1225.34 384.32 1222.16 387.497C1218.99 390.673 1213.83 390.673 1210.65 387.497C1207.48 384.32 1207.48 379.17 1210.65 375.994C1213.83 372.817 1218.99 372.817 1222.16 375.994Z"
      fill="#AAAAAA"
    />
    <path
      d="M1013.2 250.548C1014.24 254.92 1011.53 259.3 1007.15 260.332C1002.78 261.364 998.396 258.657 997.363 254.284C996.331 249.912 999.04 245.532 1003.41 244.5C1007.79 243.468 1012.17 246.176 1013.2 250.548Z"
      fill="#AAAAAA"
    />
    <path
      d="M1087.7 134.4C1088.73 138.772 1086.03 143.152 1081.65 144.184C1077.28 145.216 1072.89 142.509 1071.86 138.136C1070.83 133.764 1073.54 129.384 1077.91 128.352C1082.29 127.32 1086.67 130.028 1087.7 134.4Z"
      fill="#AAAAAA"
    />
    <path
      d="M1009.67 38.4638C1013.83 40.1829 1015.8 44.9409 1014.08 49.0911C1012.36 53.2414 1007.6 55.2122 1003.45 53.4931C999.294 51.774 997.322 47.016 999.042 42.8658C1000.76 38.7155 1005.52 36.7447 1009.67 38.4638Z"
      fill="#AAAAAA"
    />
    <path
      d="M1222.17 501.633C1225.35 504.809 1225.35 509.959 1222.17 513.136C1218.99 516.312 1213.84 516.312 1210.66 513.136C1207.48 509.959 1207.48 504.809 1210.66 501.633C1213.84 498.456 1218.99 498.456 1222.17 501.633Z"
      fill="#AAAAAA"
    />
    <path
      d="M937.206 172.532C937.206 170.463 935.524 168.781 933.453 168.781C931.383 168.781 929.701 170.463 929.701 172.532C929.701 174.601 931.383 176.283 933.453 176.283C935.524 176.283 937.206 174.601 937.206 172.532Z"
      fill="#AAAAAA"
    />
    <path
      d="M1010.78 176.342C1010.78 174.273 1009.1 172.591 1007.03 172.591C1004.96 172.591 1003.28 174.273 1003.28 176.342C1003.28 178.411 1004.96 180.093 1007.03 180.093C1009.1 180.093 1010.78 178.411 1010.78 176.342Z"
      fill="#AAAAAA"
    />
    <path
      d="M751.944 180.642C751.944 178.573 750.262 176.891 748.191 176.891C746.121 176.891 744.439 178.573 744.439 180.642C744.439 182.711 746.121 184.393 748.191 184.393C750.262 184.393 751.944 182.711 751.944 180.642Z"
      fill="#AAAAAA"
    />
    <path
      d="M825.054 130.402C825.054 128.332 823.371 126.651 821.301 126.651C819.231 126.651 817.548 128.332 817.548 130.402C817.548 132.471 819.231 134.152 821.301 134.152C823.371 134.152 825.054 132.471 825.054 130.402Z"
      fill="#AAAAAA"
    />
    <path
      d="M1110.97 581.751C1110.97 579.681 1109.28 578 1107.21 578C1105.14 578 1103.46 579.681 1103.46 581.751C1103.46 583.82 1105.14 585.502 1107.21 585.502C1109.28 585.502 1110.97 583.82 1110.97 581.751Z"
      fill="#AAAAAA"
    />
    <path
      d="M1110.97 340.67C1110.97 338.601 1109.28 336.919 1107.21 336.919C1105.14 336.919 1103.46 338.601 1103.46 340.67C1103.46 342.739 1105.14 344.421 1107.21 344.421C1109.28 344.421 1110.97 342.739 1110.97 340.67Z"
      fill="#AAAAAA"
    />
    <path
      d="M937.206 421.144C937.206 419.074 935.524 417.393 933.453 417.393C931.383 417.393 929.701 419.074 929.701 421.144C929.701 423.213 931.383 424.894 933.453 424.894C935.524 424.894 937.206 423.213 937.206 421.144Z"
      fill="#AAAAAA"
    />
    <path
      d="M1184.07 336.484C1184.07 334.415 1182.39 332.733 1180.32 332.733C1178.25 332.733 1176.57 334.415 1176.57 336.484C1176.57 338.553 1178.25 340.235 1180.32 340.235C1182.39 340.235 1184.07 338.553 1184.07 336.484Z"
      fill="#AAAAAA"
    />
    <path
      d="M865.021 252.379C865.021 250.31 863.339 248.628 861.269 248.628C859.198 248.628 857.516 250.31 857.516 252.379C857.516 254.448 859.198 256.13 861.269 256.13C863.339 256.13 865.021 254.448 865.021 252.379Z"
      fill="#AAAAAA"
    />
    <path
      d="M645.609 22.5454C645.609 20.4762 643.926 18.7945 641.856 18.7945C639.786 18.7945 638.103 20.4762 638.103 22.5454C638.103 24.6146 639.786 26.2962 641.856 26.2962C643.926 26.2962 645.609 24.6146 645.609 22.5454Z"
      fill="#AAAAAA"
    />
    <path
      d="M500.314 114.206C500.314 112.137 498.632 110.455 496.562 110.455C494.491 110.455 492.809 112.137 492.809 114.206C492.809 116.275 494.491 117.957 496.562 117.957C498.632 117.957 500.314 116.275 500.314 114.206Z"
      fill="#AAAAAA"
    />
    <mask id="path-45-inside-26_1_2" fill="white">
      <path
        d="M1107.21 559.776L1034.54 601.71V685.302C1034.54 685.57 1034.76 685.791 1035.03 685.791C1035.3 685.791 1035.52 685.57 1035.52 685.302V602.276L1107.21 560.903L1178.91 602.276V685.302C1178.91 685.57 1179.13 685.791 1179.4 685.791C1179.67 685.791 1179.89 685.57 1179.89 685.302V601.71L1107.21 559.776Z"
      />
    </mask>
    <path
      d="M1107.21 559.776L1034.54 601.71V685.302C1034.54 685.57 1034.76 685.791 1035.03 685.791C1035.3 685.791 1035.52 685.57 1035.52 685.302V602.276L1107.21 560.903L1178.91 602.276V685.302C1178.91 685.57 1179.13 685.791 1179.4 685.791C1179.67 685.791 1179.89 685.57 1179.89 685.302V601.71L1107.21 559.776Z"
      stroke="#005BFF"
      stroke-width="2"
      stroke-dasharray="2 2"
      mask="url(#path-45-inside-26_1_2)"
    />
    <mask id="path-46-inside-27_1_2" fill="white">
      <path
        d="M1079.21 112.715L1006.78 154.511C1006.55 154.648 1006.47 154.946 1006.6 155.179C1006.74 155.411 1007.04 155.495 1007.27 155.358L1079.21 113.842L1151.15 155.358C1151.39 155.495 1151.68 155.411 1151.82 155.179C1151.96 154.946 1151.88 154.648 1151.64 154.511L1079.21 112.715Z"
      />
    </mask>
    <path
      d="M1079.21 112.715L1006.78 154.511C1006.55 154.648 1006.47 154.946 1006.6 155.179C1006.74 155.411 1007.04 155.495 1007.27 155.358L1079.21 113.842L1151.15 155.358C1151.39 155.495 1151.68 155.411 1151.82 155.179C1151.96 154.946 1151.88 154.648 1151.64 154.511L1079.21 112.715Z"
      stroke="#005BFF"
      stroke-width="2"
      stroke-dasharray="2 2"
      mask="url(#path-46-inside-27_1_2)"
    />
    <mask id="path-47-inside-28_1_2" fill="white">
      <path
        d="M933.454 188.758L861.024 230.554C860.791 230.691 860.708 230.989 860.845 231.222C860.982 231.454 861.281 231.538 861.513 231.401L933.454 189.885L1005.39 231.401C1005.63 231.538 1005.92 231.454 1006.06 231.222C1006.2 230.989 1006.12 230.691 1005.88 230.554L933.454 188.758Z"
      />
    </mask>
    <path
      d="M933.454 188.758L861.024 230.554C860.791 230.691 860.708 230.989 860.845 231.222C860.982 231.454 861.281 231.538 861.513 231.401L933.454 189.885L1005.39 231.401C1005.63 231.538 1005.92 231.454 1006.06 231.222C1006.2 230.989 1006.12 230.691 1005.88 230.554L933.454 188.758Z"
      stroke="#005BFF"
      stroke-width="2"
      stroke-dasharray="2 2"
      mask="url(#path-47-inside-28_1_2)"
    />
    <mask id="path-48-inside-29_1_2" fill="white">
      <path
        d="M423.333 175.257L350.903 217.053C350.67 217.19 350.587 217.488 350.724 217.721C350.861 217.953 351.16 218.037 351.392 217.9L423.333 176.384L495.273 217.9C495.506 218.037 495.804 217.953 495.941 217.721C496.078 217.488 495.995 217.19 495.762 217.053L423.333 175.257Z"
      />
    </mask>
    <path
      d="M423.333 175.257L350.903 217.053C350.67 217.19 350.587 217.488 350.724 217.721C350.861 217.953 351.16 218.037 351.392 217.9L423.333 176.384L495.273 217.9C495.506 218.037 495.804 217.953 495.941 217.721C496.078 217.488 495.995 217.19 495.762 217.053L423.333 175.257Z"
      stroke="#005BFF"
      stroke-width="2"
      stroke-dasharray="2 2"
      mask="url(#path-48-inside-29_1_2)"
    />
    <mask id="path-49-inside-30_1_2" fill="white">
      <path
        d="M1107.21 317.945L1034.78 359.741C1034.55 359.878 1034.47 360.176 1034.6 360.409C1034.74 360.641 1035.04 360.725 1035.27 360.588L1107.21 319.072L1179.15 360.588C1179.39 360.725 1179.68 360.641 1179.82 360.409C1179.96 360.176 1179.87 359.878 1179.64 359.741L1107.21 317.945Z"
      />
    </mask>
    <path
      d="M1107.21 317.945L1034.78 359.741C1034.55 359.878 1034.47 360.176 1034.6 360.409C1034.74 360.641 1035.04 360.725 1035.27 360.588L1107.21 319.072L1179.15 360.588C1179.39 360.725 1179.68 360.641 1179.82 360.409C1179.96 360.176 1179.87 359.878 1179.64 359.741L1107.21 317.945Z"
      stroke="#005BFF"
      stroke-width="2"
      stroke-dasharray="2 2"
      mask="url(#path-49-inside-30_1_2)"
    />
    <mask id="path-50-inside-31_1_2" fill="white">
      <path
        d="M998.007 548.458C997.739 548.458 997.518 548.679 997.518 548.947V631.973L925.578 673.489C925.345 673.626 925.262 673.924 925.399 674.156C925.536 674.389 925.834 674.472 926.067 674.335L998.497 632.539V548.947C998.497 548.679 998.276 548.458 998.007 548.458Z"
      />
    </mask>
    <path
      d="M998.007 548.458C997.739 548.458 997.518 548.679 997.518 548.947V631.973L925.578 673.489C925.345 673.626 925.262 673.924 925.399 674.156C925.536 674.389 925.834 674.472 926.067 674.335L998.497 632.539V548.947C998.497 548.679 998.276 548.458 998.007 548.458Z"
      stroke="#005BFF"
      stroke-width="2"
      stroke-dasharray="2 2"
      mask="url(#path-50-inside-31_1_2)"
    />
    <mask id="path-51-inside-32_1_2" fill="white">
      <path
        d="M998.008 423.493C997.739 423.493 997.518 423.714 997.518 423.982V507.574L1069.95 549.37C1070.18 549.508 1070.48 549.424 1070.62 549.191C1070.75 548.959 1070.67 548.661 1070.44 548.524L998.497 507.008V423.982C998.497 423.714 998.276 423.493 998.008 423.493Z"
      />
    </mask>
    <path
      d="M998.008 423.493C997.739 423.493 997.518 423.714 997.518 423.982V507.574L1069.95 549.37C1070.18 549.508 1070.48 549.424 1070.62 549.191C1070.75 548.959 1070.67 548.661 1070.44 548.524L998.497 507.008V423.982C998.497 423.714 998.276 423.493 998.008 423.493Z"
      stroke="#005BFF"
      stroke-width="2"
      stroke-dasharray="2 2"
      mask="url(#path-51-inside-32_1_2)"
    />
    <mask id="path-52-inside-33_1_2" fill="white">
      <path
        d="M1216.41 423.493C1216.14 423.493 1215.92 423.714 1215.92 423.982V507.008L1143.98 548.524C1143.75 548.661 1143.67 548.959 1143.8 549.191C1143.94 549.424 1144.24 549.508 1144.47 549.37L1216.9 507.574V423.982C1216.9 423.714 1216.68 423.493 1216.41 423.493Z"
      />
    </mask>
    <path
      d="M1216.41 423.493C1216.14 423.493 1215.92 423.714 1215.92 423.982V507.008L1143.98 548.524C1143.75 548.661 1143.67 548.959 1143.8 549.191C1143.94 549.424 1144.24 549.508 1144.47 549.37L1216.9 507.574V423.982C1216.9 423.714 1216.68 423.493 1216.41 423.493Z"
      stroke="#005BFF"
      stroke-width="2"
      stroke-dasharray="2 2"
      mask="url(#path-52-inside-33_1_2)"
    />
    <mask id="path-53-inside-34_1_2" fill="white">
      <path
        d="M892.555 29.9459C892.287 29.9459 892.066 30.1665 892.066 30.4349V113.461L820.37 154.833L748.43 113.317C748.197 113.18 747.899 113.264 747.762 113.496C747.625 113.729 747.708 114.027 747.941 114.164L820.37 155.96L893.044 114.027V30.4349C893.044 30.1665 892.824 29.9459 892.555 29.9459Z"
      />
    </mask>
    <path
      d="M892.555 29.9459C892.287 29.9459 892.066 30.1665 892.066 30.4349V113.461L820.37 154.833L748.43 113.317C748.197 113.18 747.899 113.264 747.762 113.496C747.625 113.729 747.708 114.027 747.941 114.164L820.37 155.96L893.044 114.027V30.4349C893.044 30.1665 892.824 29.9459 892.555 29.9459Z"
      stroke="#005BFF"
      stroke-width="2"
      stroke-dasharray="2 2"
      mask="url(#path-53-inside-34_1_2)"
    />
    <mask id="path-54-inside-35_1_2" fill="white">
      <path
        d="M748.245 158.673L675.816 200.47C675.583 200.607 675.499 200.905 675.637 201.137C675.774 201.37 676.072 201.453 676.305 201.316L748.245 159.801L819.941 201.173V284.199C819.941 284.467 820.161 284.688 820.43 284.688C820.698 284.688 820.919 284.467 820.919 284.199V200.607L820.675 200.464L748.245 158.668V158.673Z"
      />
    </mask>
    <path
      d="M748.245 158.673L675.816 200.47C675.583 200.607 675.499 200.905 675.637 201.137C675.774 201.37 676.072 201.453 676.305 201.316L748.245 159.801L819.941 201.173V284.199C819.941 284.467 820.161 284.688 820.43 284.688C820.698 284.688 820.919 284.467 820.919 284.199V200.607L820.675 200.464L748.245 158.668V158.673Z"
      stroke="#005BFF"
      stroke-width="2"
      stroke-dasharray="2 2"
      mask="url(#path-54-inside-35_1_2)"
    />
    <mask id="path-55-inside-36_1_2" fill="white">
      <path
        d="M351.154 14.5011L278.724 56.2972C278.491 56.4343 278.408 56.7325 278.545 56.965C278.682 57.1976 278.981 57.2811 279.213 57.144L351.154 15.6282L422.849 57.0008V140.026C422.849 140.295 423.07 140.515 423.339 140.515C423.607 140.515 423.828 140.295 423.828 140.026V56.4343L423.583 56.2912L351.154 14.4951V14.5011Z"
      />
    </mask>
    <path
      d="M351.154 14.5011L278.724 56.2972C278.491 56.4343 278.408 56.7325 278.545 56.965C278.682 57.1976 278.981 57.2811 279.213 57.144L351.154 15.6282L422.849 57.0008V140.026C422.849 140.295 423.07 140.515 423.339 140.515C423.607 140.515 423.828 140.295 423.828 140.026V56.4343L423.583 56.2912L351.154 14.4951V14.5011Z"
      stroke="#005BFF"
      stroke-width="2"
      stroke-dasharray="2 2"
      mask="url(#path-55-inside-36_1_2)"
    />
    <mask id="path-56-inside-37_1_2" fill="white">
      <path
        d="M1077.49 633.398C1077.22 633.398 1077 633.619 1077 633.887V716.913L1005.3 758.285L933.364 716.769C933.131 716.632 932.833 716.716 932.696 716.948C932.558 717.181 932.642 717.479 932.875 717.616L1005.3 759.412L1077.98 717.479V633.887C1077.98 633.619 1077.76 633.398 1077.49 633.398Z"
      />
    </mask>
    <path
      d="M1077.49 633.398C1077.22 633.398 1077 633.619 1077 633.887V716.913L1005.3 758.285L933.364 716.769C933.131 716.632 932.833 716.716 932.696 716.948C932.558 717.181 932.642 717.479 932.875 717.616L1005.3 759.412L1077.98 717.479V633.887C1077.98 633.619 1077.76 633.398 1077.49 633.398Z"
      stroke="#005BFF"
      stroke-width="2"
      stroke-dasharray="2 2"
      mask="url(#path-56-inside-37_1_2)"
    />
    <mask id="path-57-inside-38_1_2" fill="white">
      <path
        d="M885.384 422.074L812.954 463.87C812.722 464.007 812.638 464.306 812.775 464.538C812.913 464.771 813.211 464.854 813.444 464.717L885.384 423.201L957.08 464.574V547.6C957.08 547.868 957.3 548.089 957.569 548.089C957.837 548.089 958.058 547.868 958.058 547.6V464.007L885.39 422.074H885.384Z"
      />
    </mask>
    <path
      d="M885.384 422.074L812.954 463.87C812.722 464.007 812.638 464.306 812.775 464.538C812.913 464.771 813.211 464.854 813.444 464.717L885.384 423.201L957.08 464.574V547.6C957.08 547.868 957.3 548.089 957.569 548.089C957.837 548.089 958.058 547.868 958.058 547.6V464.007L885.39 422.074H885.384Z"
      stroke="#005BFF"
      stroke-width="2"
      stroke-dasharray="2 2"
      mask="url(#path-57-inside-38_1_2)"
    />
    <mask id="path-58-inside-39_1_2" fill="white">
      <path
        d="M1289.53 318.702L1217.1 360.498C1216.86 360.635 1216.78 360.933 1216.92 361.166C1217.06 361.398 1217.35 361.482 1217.59 361.345L1289.53 319.829L1361.22 361.202V444.227C1361.22 444.496 1361.44 444.716 1361.71 444.716C1361.98 444.716 1362.2 444.496 1362.2 444.227V360.635L1361.96 360.492L1289.53 318.696V318.702Z"
      />
    </mask>
    <path
      d="M1289.53 318.702L1217.1 360.498C1216.86 360.635 1216.78 360.933 1216.92 361.166C1217.06 361.398 1217.35 361.482 1217.59 361.345L1289.53 319.829L1361.22 361.202V444.227C1361.22 444.496 1361.44 444.716 1361.71 444.716C1361.98 444.716 1362.2 444.496 1362.2 444.227V360.635L1361.96 360.492L1289.53 318.696V318.702Z"
      stroke="#005BFF"
      stroke-width="2"
      stroke-dasharray="2 2"
      mask="url(#path-58-inside-39_1_2)"
    />
    <mask id="path-59-inside-40_1_2" fill="white">
      <path
        d="M496.562 -32.5306C496.293 -32.5306 496.072 -32.31 496.072 -32.0417V51.5505L496.317 51.6936L568.746 93.4897L641.176 51.6936C641.409 51.5565 641.492 51.2583 641.355 51.0257C641.218 50.7932 640.919 50.7097 640.687 50.8468L568.746 92.3626L497.051 50.9899V-32.0357C497.051 -32.3041 496.83 -32.5247 496.562 -32.5247V-32.5306Z"
      />
    </mask>
    <path
      d="M496.562 -32.5306C496.293 -32.5306 496.072 -32.31 496.072 -32.0417V51.5505L496.317 51.6936L568.746 93.4897L641.176 51.6936C641.409 51.5565 641.492 51.2583 641.355 51.0257C641.218 50.7932 640.919 50.7097 640.687 50.8468L568.746 92.3626L497.051 50.9899V-32.0357C497.051 -32.3041 496.83 -32.5247 496.562 -32.5247V-32.5306Z"
      stroke="#005BFF"
      stroke-width="2"
      stroke-dasharray="2 2"
      mask="url(#path-59-inside-40_1_2)"
    />
    <mask id="path-60-inside-41_1_2" fill="white">
      <path
        d="M1107.21 359.281L1033.61 401.751V486.697L1107.21 529.167L1107.46 529.024L1180.81 486.691V401.745L1180.57 401.602L1107.21 359.27V359.281ZM1034.59 402.318L1107.21 360.408L1179.84 402.318V486.137L1107.21 528.046L1034.59 486.137V402.318Z"
      />
    </mask>
    <path
      d="M1107.21 359.281L1033.61 401.751V486.697L1107.21 529.167L1107.46 529.024L1180.81 486.691V401.745L1180.57 401.602L1107.21 359.27V359.281ZM1034.59 402.318L1107.21 360.408L1179.84 402.318V486.137L1107.21 528.046L1034.59 486.137V402.318Z"
      stroke="#005BFF"
      stroke-width="2"
      stroke-dasharray="2 2"
      mask="url(#path-60-inside-41_1_2)"
    />
    <mask id="path-61-inside-42_1_2" fill="white">
      <path
        d="M1189.48 -77.3799L1115.88 -34.9099V50.0359L1116.12 50.179L1189.48 92.5117L1263.07 50.0418V-34.904L1262.83 -35.0471L1189.48 -77.3799ZM1116.85 -34.3494L1189.48 -76.2588L1262.11 -34.3494V49.4694L1189.48 91.3787L1116.85 49.4694V-34.3494Z"
      />
    </mask>
    <path
      d="M1189.48 -77.3799L1115.88 -34.9099V50.0359L1116.12 50.179L1189.48 92.5117L1263.07 50.0418V-34.904L1262.83 -35.0471L1189.48 -77.3799ZM1116.85 -34.3494L1189.48 -76.2588L1262.11 -34.3494V49.4694L1189.48 91.3787L1116.85 49.4694V-34.3494Z"
      stroke="#005BFF"
      stroke-width="2"
      stroke-dasharray="2 2"
      mask="url(#path-61-inside-42_1_2)"
    />
    <mask id="path-62-inside-43_1_2" fill="white">
      <path
        d="M1006.56 24.1258C1006.48 24.1258 1006.4 24.1496 1006.32 24.1914L932.964 66.5242V151.47L933.209 151.613L1006.56 193.946L1079.92 151.613C1080.15 151.476 1080.23 151.178 1080.1 150.945C1079.96 150.713 1079.66 150.629 1079.43 150.766L1006.56 192.813L933.937 150.903V67.0847L1006.8 25.0381C1007.03 24.901 1007.12 24.6028 1006.98 24.3702C1006.89 24.2152 1006.72 24.1258 1006.56 24.1258H1006.56Z"
      />
    </mask>
    <path
      d="M1006.56 24.1258C1006.48 24.1258 1006.4 24.1496 1006.32 24.1914L932.964 66.5242V151.47L933.209 151.613L1006.56 193.946L1079.92 151.613C1080.15 151.476 1080.23 151.178 1080.1 150.945C1079.96 150.713 1079.66 150.629 1079.43 150.766L1006.56 192.813L933.937 150.903V67.0847L1006.8 25.0381C1007.03 24.901 1007.12 24.6028 1006.98 24.3702C1006.89 24.2152 1006.72 24.1258 1006.56 24.1258H1006.56Z"
      stroke="#005BFF"
      stroke-width="2"
      stroke-dasharray="2 2"
      mask="url(#path-62-inside-43_1_2)"
    />
    <mask id="path-63-inside-44_1_2" fill="white">
      <path
        d="M641.856 0.571075L568.502 42.9038C568.269 43.041 568.186 43.3391 568.323 43.5717C568.46 43.8043 568.758 43.8877 568.991 43.7506L641.856 1.70403L714.483 43.6134V127.432L641.618 169.479C641.385 169.616 641.301 169.914 641.439 170.147C641.576 170.379 641.874 170.463 642.107 170.326L715.461 127.993V43.0469L715.216 42.9038L641.862 0.571075H641.856Z"
      />
    </mask>
    <path
      d="M641.856 0.571075L568.502 42.9038C568.269 43.041 568.186 43.3391 568.323 43.5717C568.46 43.8043 568.758 43.8877 568.991 43.7506L641.856 1.70403L714.483 43.6134V127.432L641.618 169.479C641.385 169.616 641.301 169.914 641.439 170.147C641.576 170.379 641.874 170.463 642.107 170.326L715.461 127.993V43.0469L715.216 42.9038L641.862 0.571075H641.856Z"
      stroke="#005BFF"
      stroke-width="2"
      stroke-dasharray="2 2"
      mask="url(#path-63-inside-44_1_2)"
    />
    <mask id="path-64-inside-45_1_2" fill="white">
      <path
        d="M1152.92 -54.4336C1152.84 -54.4336 1152.75 -54.4097 1152.68 -54.3679L1079.32 -12.0351V72.9106L1079.57 73.0538L1152.68 115.243C1152.91 115.381 1153.21 115.297 1153.34 115.065C1153.48 114.832 1153.4 114.534 1153.16 114.397L1080.3 72.3501V-11.4687L1153.16 -53.5152C1153.4 -53.6524 1153.48 -53.9505 1153.34 -54.1831C1153.25 -54.3381 1153.09 -54.4276 1152.92 -54.4276V-54.4336Z"
      />
    </mask>
    <path
      d="M1152.92 -54.4336C1152.84 -54.4336 1152.75 -54.4097 1152.68 -54.3679L1079.32 -12.0351V72.9106L1079.57 73.0538L1152.68 115.243C1152.91 115.381 1153.21 115.297 1153.34 115.065C1153.48 114.832 1153.4 114.534 1153.16 114.397L1080.3 72.3501V-11.4687L1153.16 -53.5152C1153.4 -53.6524 1153.48 -53.9505 1153.34 -54.1831C1153.25 -54.3381 1153.09 -54.4276 1152.92 -54.4276V-54.4336Z"
      stroke="#005BFF"
      stroke-width="2"
      stroke-dasharray="2 2"
      mask="url(#path-64-inside-45_1_2)"
    />
    <mask id="path-65-inside-46_1_2" fill="white">
      <path
        d="M821.301 -60.2534C821.217 -60.2534 821.134 -60.2296 821.056 -60.1878L747.702 -17.8551V67.0907L747.947 67.2338L821.056 109.423C821.289 109.561 821.587 109.477 821.725 109.245C821.862 109.012 821.778 108.714 821.546 108.577L748.681 66.5302V-17.2886L821.546 -59.3351C821.778 -59.4723 821.862 -59.7704 821.725 -60.003C821.635 -60.1581 821.468 -60.2475 821.301 -60.2475V-60.2534Z"
      />
    </mask>
    <path
      d="M821.301 -60.2534C821.217 -60.2534 821.134 -60.2296 821.056 -60.1878L747.702 -17.8551V67.0907L747.947 67.2338L821.056 109.423C821.289 109.561 821.587 109.477 821.725 109.245C821.862 109.012 821.778 108.714 821.546 108.577L748.681 66.5302V-17.2886L821.546 -59.3351C821.778 -59.4723 821.862 -59.7704 821.725 -60.003C821.635 -60.1581 821.468 -60.2475 821.301 -60.2475V-60.2534Z"
      stroke="#005BFF"
      stroke-width="2"
      stroke-dasharray="2 2"
      mask="url(#path-65-inside-46_1_2)"
    />
    <mask id="path-66-inside-47_1_2" fill="white">
      <path
        d="M933.454 230.488C933.286 230.488 933.119 230.578 933.03 230.733C932.893 230.965 932.976 231.263 933.209 231.401L1006.07 273.447V357.266L933.209 399.312C932.976 399.45 932.893 399.748 933.03 399.98C933.167 400.213 933.465 400.296 933.698 400.159L1007.05 357.826V272.881L1006.81 272.737L933.698 230.548C933.621 230.506 933.537 230.482 933.454 230.482V230.488Z"
      />
    </mask>
    <path
      d="M933.454 230.488C933.286 230.488 933.119 230.578 933.03 230.733C932.893 230.965 932.976 231.263 933.209 231.401L1006.07 273.447V357.266L933.209 399.312C932.976 399.45 932.893 399.748 933.03 399.98C933.167 400.213 933.465 400.296 933.698 400.159L1007.05 357.826V272.881L1006.81 272.737L933.698 230.548C933.621 230.506 933.537 230.482 933.454 230.482V230.488Z"
      stroke="#005BFF"
      stroke-width="2"
      stroke-dasharray="2 2"
      mask="url(#path-66-inside-47_1_2)"
    />
    <mask id="path-67-inside-48_1_2" fill="white">
      <path
        d="M1289.53 559.854C1289.44 559.854 1289.36 559.878 1289.28 559.919L1215.93 602.252V687.198L1289.28 729.531C1289.52 729.668 1289.81 729.584 1289.95 729.352C1290.09 729.119 1290 728.821 1289.77 728.684L1216.91 686.637V602.819L1289.77 560.772C1290 560.635 1290.09 560.337 1289.95 560.104C1289.86 559.949 1289.69 559.86 1289.53 559.86V559.854Z"
      />
    </mask>
    <path
      d="M1289.53 559.854C1289.44 559.854 1289.36 559.878 1289.28 559.919L1215.93 602.252V687.198L1289.28 729.531C1289.52 729.668 1289.81 729.584 1289.95 729.352C1290.09 729.119 1290 728.821 1289.77 728.684L1216.91 686.637V602.819L1289.77 560.772C1290 560.635 1290.09 560.337 1289.95 560.104C1289.86 559.949 1289.69 559.86 1289.53 559.86V559.854Z"
      stroke="#005BFF"
      stroke-width="2"
      stroke-dasharray="2 2"
      mask="url(#path-67-inside-48_1_2)"
    />
    <mask id="path-68-inside-49_1_2" fill="white">
      <path
        d="M1180.32 146.109C1180.16 146.109 1179.99 146.198 1179.9 146.353C1179.76 146.586 1179.85 146.884 1180.08 147.021L1252.94 189.074V272.893L1180.32 314.802L1107.45 272.755C1107.22 272.618 1106.92 272.702 1106.78 272.934C1106.65 273.167 1106.73 273.465 1106.96 273.602L1180.32 315.935L1253.92 273.465V188.519L1253.67 188.376L1180.56 146.186C1180.48 146.145 1180.4 146.121 1180.32 146.121L1180.32 146.109Z"
      />
    </mask>
    <path
      d="M1180.32 146.109C1180.16 146.109 1179.99 146.198 1179.9 146.353C1179.76 146.586 1179.85 146.884 1180.08 147.021L1252.94 189.074V272.893L1180.32 314.802L1107.45 272.755C1107.22 272.618 1106.92 272.702 1106.78 272.934C1106.65 273.167 1106.73 273.465 1106.96 273.602L1180.32 315.935L1253.92 273.465V188.519L1253.67 188.376L1180.56 146.186C1180.48 146.145 1180.4 146.121 1180.32 146.121L1180.32 146.109Z"
      stroke="#005BFF"
      stroke-width="2"
      stroke-dasharray="2 2"
      mask="url(#path-68-inside-49_1_2)"
    />
    <mask id="path-69-inside-50_1_2" fill="white">
      <path
        d="M496.448 92.315C496.281 92.315 496.114 92.4043 496.025 92.5594C495.887 92.792 495.971 93.0901 496.204 93.2273L569.069 135.274V219.093L496.442 261.002L423.577 218.955C423.344 218.818 423.046 218.902 422.909 219.134C422.772 219.367 422.855 219.665 423.088 219.802L496.442 262.135L570.041 219.665V134.719L569.796 134.576L496.687 92.3865C496.609 92.3448 496.526 92.3209 496.442 92.3209L496.448 92.315Z"
      />
    </mask>
    <path
      d="M496.448 92.315C496.281 92.315 496.114 92.4043 496.025 92.5594C495.887 92.792 495.971 93.0901 496.204 93.2273L569.069 135.274V219.093L496.442 261.002L423.577 218.955C423.344 218.818 423.046 218.902 422.909 219.134C422.772 219.367 422.855 219.665 423.088 219.802L496.442 262.135L570.041 219.665V134.719L569.796 134.576L496.687 92.3865C496.609 92.3448 496.526 92.3209 496.442 92.3209L496.448 92.315Z"
      stroke="#005BFF"
      stroke-width="2"
      stroke-dasharray="2 2"
      mask="url(#path-69-inside-50_1_2)"
    />
    <rect
      x="797.821"
      y="246.534"
      width="271.374"
      height="475.855"
      fill="url(#paint0_linear_1_2)"
    />
  </g>
  <ellipse
    cx="527.487"
    cy="178.891"
    rx="527.487"
    ry="178.891"
    transform="matrix(1 0 0 -1 0.195312 369.97)"
    fill="url(#paint1_radial_1_2)"
  />
  <defs>
    <linearGradient
      id="paint0_linear_1_2"
      x1="933.508"
      y1="246.534"
      x2="933.508"
      y2="722.389"
      gradientUnits="userSpaceOnUse"
    >
      <stop stop-color="#FAFAFA" stop-opacity="0" />
      <stop offset="1" stop-color="#FAFAFA" />
    </linearGradient>
    <radialGradient
      id="paint1_radial_1_2"
      cx="0"
      cy="0"
      r="1"
      gradientUnits="userSpaceOnUse"
      gradientTransform="translate(527.487 178.891) scale(761.722 743.654)"
    >
      <stop stop-color="#FAFAFA" />
      <stop offset="1" stop-color="#FAFAFA" stop-opacity="0" />
    </radialGradient>
    <clipPath id="clip0_1_2">
      <rect
        width="961.292"
        height="701.284"
        fill="white"
        transform="matrix(1 0 0 -1 278.48 701.612)"
      />
    </clipPath>
  </defs>
</svg>
